<svg width="32" height="32" viewBox="0 0 32 32" fill="none" xmlns="http://www.w3.org/2000/svg">
<path d="M16.1836 3.2192L18.4265 0.837891L19.8693 3.77667L22.7099 2.16549L23.2241 5.3975L26.415 4.69825L25.9554 7.93671L29.2106 8.2106L27.8192 11.1752L30.8462 12.3964L28.6483 14.8164L31.1836 16.8819L28.3719 18.5414L30.1842 21.2643L27.0094 22.0216L27.9445 25.1569L24.6862 24.941L24.6572 28.2149L21.6078 27.0484L20.618 30.1676L18.0473 28.1472L16.1836 30.8379L14.3198 28.1472L11.7491 30.1676L10.7594 27.0484L7.70994 28.2149L7.68102 24.941L4.42266 25.1569L5.35776 22.0216L2.18295 21.2643L3.99529 18.5414L1.18359 16.8819L3.71894 14.8164L1.52099 12.3964L4.54799 11.1752L3.1566 8.2106L6.41174 7.93671L5.95223 4.69825L9.1431 5.3975L9.65724 2.16549L12.4979 3.77667L13.9407 0.837891L16.1836 3.2192Z" fill="white" stroke="#535C69" stroke-width="0.9" stroke-miterlimit="10" stroke-linecap="round" stroke-linejoin="round"/>
<path d="M14.8803 12.2258C14.8803 13.4987 13.852 14.5298 12.5827 14.5298C11.3134 14.5298 10.2852 13.4987 10.2852 12.2258C10.2852 10.953 11.3134 9.92188 12.5827 9.92188C13.852 9.92187 14.8803 10.953 14.8803 12.2258Z" stroke="#535C69" stroke-width="0.9" stroke-miterlimit="10" stroke-linecap="round" stroke-linejoin="round"/>
<path d="M22.0834 19.45C22.0834 20.7228 21.0551 21.7539 19.7858 21.7539C18.5166 21.7539 17.4883 20.7228 17.4883 19.45C17.4883 18.1771 18.5166 17.146 19.7858 17.146C21.0551 17.146 22.0834 18.1771 22.0834 19.45Z" stroke="#535C69" stroke-width="0.9" stroke-miterlimit="10" stroke-linecap="round" stroke-linejoin="round"/>
<path d="M21.4247 10.3491L10.5635 21.2406" stroke="#535C69" stroke-width="0.9" stroke-miterlimit="10" stroke-linecap="round" stroke-linejoin="round"/>
</svg>
