<svg width="33" height="31" viewBox="0 0 33 31" fill="none" xmlns="http://www.w3.org/2000/svg">
<path d="M32.2585 14.1231H28.4721C28.4104 13.3281 28.0318 12.5845 27.4123 12.0414C26.7928 11.4983 25.9782 11.1958 25.1318 11.1946C24.6468 11.1938 24.1675 11.2932 23.7277 11.4857C23.3596 10.8331 22.8004 10.2937 22.1165 9.93145C21.4326 9.56925 20.6526 9.3995 19.8693 9.44237C19.0859 9.48524 18.3321 9.73892 17.6973 10.1733C17.0625 10.6077 16.5735 11.2045 16.2881 11.8929C15.5773 11.8561 14.876 12.0611 14.3122 12.4704C13.7484 12.8798 13.3595 13.4663 13.2164 14.1231H9.47939V11.4981C9.47939 11.3615 9.42175 11.2304 9.31917 11.1338C9.21658 11.0372 9.07744 10.9829 8.93236 10.9829H8.67198V7.3994C8.67198 7.26277 8.61434 7.13173 8.51175 7.03512C8.40917 6.9385 8.27003 6.88423 8.12495 6.88423H7.81236V3.16234C7.81236 2.81881 7.95727 2.48935 8.2152 2.24643C8.47314 2.00352 8.82297 1.86705 9.18774 1.86705H14.9562C15.2336 1.8677 15.5043 1.94745 15.7326 2.09579C15.9609 2.24413 16.1362 2.45412 16.2353 2.6981C15.2681 2.84244 14.3871 3.30667 13.7505 4.00749C13.1138 4.70831 12.7632 5.59985 12.7615 6.52214C12.7615 6.65877 12.8192 6.7898 12.9218 6.88642C13.0243 6.98303 13.1635 7.03731 13.3086 7.03731H20.4462C20.5912 7.03731 20.7304 6.98303 20.833 6.88642C20.9356 6.7898 20.9932 6.65877 20.9932 6.52214C20.9913 5.57531 20.6219 4.6618 19.9545 3.9537C19.2871 3.2456 18.3677 2.7918 17.3697 2.67779C17.2512 2.15756 16.947 1.69125 16.5079 1.35649C16.0688 1.02172 15.5212 0.838701 14.9562 0.837891H9.18774C8.53281 0.837891 7.9047 1.08291 7.44159 1.51905C6.97848 1.95519 6.71831 2.54672 6.71831 3.16352V6.88423H6.40572C6.26064 6.88423 6.12151 6.9385 6.01892 7.03512C5.91633 7.13173 5.8587 7.26277 5.8587 7.3994V10.9829H5.59831C5.45323 10.9829 5.3141 11.0372 5.21151 11.1338C5.10892 11.2304 5.05129 11.3615 5.05129 11.4981V14.1231H1.49624C1.35116 14.1231 1.21203 14.1774 1.10944 14.274C1.00685 14.3706 0.949219 14.5016 0.949219 14.6383V16.9933C0.949219 17.13 1.00685 17.261 1.10944 17.3576C1.21203 17.4542 1.35116 17.5085 1.49624 17.5085H2.21519L3.19703 24.3064C3.35379 25.3604 3.8886 26.3322 4.71267 27.0604C5.53674 27.7887 6.60049 28.2296 7.72734 28.31L7.03965 30.1517C7.01068 30.2294 7.00191 30.3125 7.01406 30.3941C7.02622 30.4756 7.05896 30.5533 7.10953 30.6205C7.1601 30.6877 7.22703 30.7425 7.30472 30.7803C7.3824 30.8181 7.46859 30.8379 7.55604 30.8379H9.46907C9.57301 30.8379 9.6748 30.81 9.76253 30.7575C9.85026 30.705 9.92032 30.63 9.96452 30.5414L11.0673 28.3259H22.6865L23.7893 30.5414C23.8335 30.63 23.9035 30.705 23.9913 30.7575C24.079 30.81 24.1808 30.8379 24.2847 30.8379H26.1977C26.2852 30.8379 26.3714 30.8181 26.4491 30.7803C26.5268 30.7425 26.5937 30.6877 26.6443 30.6205C26.6948 30.5533 26.7276 30.4756 26.7397 30.3941C26.7519 30.3125 26.7431 30.2294 26.7141 30.1517L26.0264 28.31C27.1533 28.2296 28.2171 27.7887 29.0411 27.0604C29.8652 26.3322 30.4 25.3604 30.5568 24.3064L31.5377 17.5085H32.2566C32.4017 17.5085 32.5408 17.4542 32.6434 17.3576C32.746 17.261 32.8036 17.13 32.8036 16.9933V14.6383C32.8036 14.502 32.7463 14.3712 32.6441 14.2746C32.5419 14.1781 32.4032 14.1236 32.2585 14.1231ZM19.8488 6.00814H13.9053C14.0333 5.35377 14.4007 4.76232 14.9437 4.33657C15.4866 3.91082 16.1708 3.67769 16.8774 3.67769C17.5839 3.67769 18.2681 3.91082 18.8111 4.33657C19.354 4.76232 19.7214 5.35377 19.8494 6.00814H19.8488ZM16.5479 12.9632C16.6864 12.9924 16.8315 12.9697 16.9525 12.8999C17.0736 12.8301 17.1611 12.7188 17.1965 12.5894C17.3582 11.9988 17.7181 11.4732 18.2227 11.0908C18.7272 10.7085 19.3494 10.4898 19.9966 10.4675C20.6438 10.4451 21.2813 10.6202 21.8143 10.9667C22.3473 11.3132 22.7471 11.8125 22.9544 12.3904C22.982 12.4673 23.0285 12.537 23.0901 12.5938C23.1518 12.6505 23.2268 12.6928 23.309 12.7171C23.3913 12.7414 23.4785 12.7471 23.5635 12.7336C23.6486 12.7202 23.729 12.688 23.7983 12.6397C24.1844 12.37 24.6524 12.2245 25.1331 12.2249C25.6898 12.2256 26.2266 12.4196 26.6409 12.7699C27.0551 13.1201 27.3176 13.6019 27.3781 14.1231H14.3473C14.4947 13.7063 14.802 13.3563 15.2091 13.1418C15.6161 12.9272 16.0936 12.8636 16.5479 12.9632ZM6.9515 7.91457H7.57667V10.9829H6.9515V7.91457ZM6.14534 12.0133H8.38533V14.1231H6.14534V12.0133ZM9.1221 29.8087H8.32907L8.88235 28.3271H9.85949L9.1221 29.8087ZM24.6326 29.8087L23.8952 28.3271H24.8724L25.4257 29.8087H24.6326ZM29.4724 24.1675C29.3445 25.0331 28.8892 25.8262 28.1901 26.4011C27.4911 26.9759 26.5953 27.294 25.6673 27.2968H8.08744C7.15941 27.294 6.26362 26.9759 5.5646 26.4011C4.86558 25.8262 4.41027 25.0331 4.28233 24.1675L3.3205 17.5085H30.4342L29.4724 24.1675ZM31.7115 16.4782H2.04327V15.1535H31.7115V16.4782Z" fill="#535D69"/>
</svg>
