<svg width="24" height="31" viewBox="0 0 24 31" fill="none" xmlns="http://www.w3.org/2000/svg">
<path d="M7.87849 18.8199C7.98457 18.8199 8.0863 18.7802 8.16131 18.7096C8.23632 18.6389 8.27846 18.5431 8.27846 18.4432V15.1814C8.27846 15.0815 8.23632 14.9857 8.16131 14.915C8.0863 14.8444 7.98457 14.8047 7.87849 14.8047C7.77241 14.8047 7.67067 14.8444 7.59566 14.915C7.52066 14.9857 7.47852 15.0815 7.47852 15.1814V18.4432C7.47852 18.5431 7.52066 18.6389 7.59566 18.7096C7.67067 18.7802 7.77241 18.8199 7.87849 18.8199Z" fill="#535C69"/>
<path d="M23.0486 27.5118H21.3419V1.1979C21.3448 1.15084 21.3373 1.10371 21.3199 1.05952C21.3025 1.01532 21.2755 0.975022 21.2406 0.941179C21.2058 0.907335 21.1638 0.880688 21.1175 0.86293C21.0711 0.845173 21.0213 0.836692 20.9713 0.838027H3.45238C3.40234 0.836692 3.35255 0.845173 3.30618 0.86293C3.25981 0.880688 3.21786 0.907335 3.18301 0.941179C3.14816 0.975022 3.12116 1.01532 3.10374 1.05952C3.08631 1.10371 3.07883 1.15084 3.08178 1.1979V27.5118H1.375C1.15421 27.5118 0.949219 27.6618 0.949219 27.8695V30.478C0.949219 30.6859 1.15421 30.8379 1.375 30.8379H23.0486C23.2694 30.8379 23.4744 30.6859 23.4744 30.478V27.8695C23.4744 27.6618 23.2694 27.5118 23.0486 27.5118ZM3.88149 1.59117H20.5421V27.5118H18.6095V3.80666C18.6085 3.704 18.5655 3.60565 18.4895 3.53203C18.4136 3.45841 18.3104 3.41516 18.2015 3.41126H6.22218C6.11325 3.41516 6.01009 3.45841 5.93411 3.53203C5.85813 3.60565 5.81516 3.704 5.81413 3.80666V27.5118H3.88149V1.59117ZM17.8098 27.5118H6.61384V4.1644H17.8098V27.5118ZM22.6747 30.085H1.74893V28.2649H22.6747V30.085Z" fill="#535C69"/>
</svg>
