<svg width="21" height="31" viewBox="0 0 21 31" fill="none" xmlns="http://www.w3.org/2000/svg">
<path d="M20.0809 2.45117H13.8365L13.0322 0.936289C12.9532 0.787402 12.7916 0.693359 12.6149 0.693359H8.88187C8.70511 0.693359 8.54353 0.787402 8.46452 0.936289L7.66024 2.45117H1.41585C1.15814 2.45117 0.949219 2.64787 0.949219 2.89062V27.6172C0.949219 27.8599 1.15814 28.0566 1.41585 28.0566H4.68223V29.375C4.68223 30.1019 5.31019 30.6934 6.08211 30.6934C6.85404 30.6934 7.48199 30.1019 7.48199 29.375V28.0566H14.0148V29.375C14.0148 30.1019 14.6427 30.6934 15.4146 30.6934C16.1866 30.6934 16.8145 30.1019 16.8145 29.375V28.0566H20.0809C20.3386 28.0566 20.5475 27.8599 20.5475 27.6172V2.89062C20.5475 2.64787 20.3386 2.45117 20.0809 2.45117ZM9.17024 1.57227H12.3264L12.7931 2.45117H8.70362L9.17024 1.57227ZM6.54874 29.375C6.54874 29.6173 6.33944 29.8145 6.08211 29.8145C5.82478 29.8145 5.61548 29.6173 5.61548 29.375V28.0566H6.54874V29.375ZM15.8813 29.375C15.8813 29.6173 15.672 29.8145 15.4146 29.8145C15.1573 29.8145 14.948 29.6173 14.948 29.375V28.0566H15.8813V29.375ZM19.6143 4.20898H1.96335C1.70565 4.20898 2.50152 4.40568 2.50152 4.64844C2.50152 4.89119 1.70565 5.08789 1.96335 5.08789H19.6143V27.1777H1.88247V5.08789H3.28235C3.54005 5.08789 3.74898 4.89119 3.74898 4.64844C3.74898 4.40568 3.54005 4.20898 3.28235 4.20898H1.88247V3.33008H13.5467C13.5506 3.33008 19.6143 3.33008 19.6143 3.33008V4.20898Z" fill="#535C69"/>
<path d="M10.7474 22.0034C9.46049 22.0034 8.41357 22.9894 8.41357 24.2013C8.41357 25.4133 9.46049 26.3992 10.7474 26.3992C12.0343 26.3992 13.0812 25.4133 13.0812 24.2013C13.0812 22.9894 12.0343 22.0034 10.7474 22.0034ZM10.7474 25.5201C9.97524 25.5201 9.3471 24.9284 9.3471 24.2013C9.3471 23.6283 9.73737 23.1396 10.2806 22.9582V24.2013C10.2806 24.4441 10.4896 24.6409 10.7474 24.6409C11.0052 24.6409 11.2141 24.4441 11.2141 24.2013V22.9582C11.7574 23.1396 12.1477 23.6283 12.1477 24.2013C12.1477 24.9284 11.5195 25.5201 10.7474 25.5201Z" fill="#535C69"/>
</svg>
