<svg width="23" height="31" viewBox="0 0 23 31" fill="none" xmlns="http://www.w3.org/2000/svg">
<path d="M22.1658 17.145H21.5454L17.5282 1.06654C17.5017 0.960329 17.4378 0.865666 17.347 0.797922C17.2562 0.730179 17.1437 0.693331 17.0279 0.693359H5.72445C5.6086 0.693331 5.49613 0.730179 5.40531 0.797922C5.31449 0.865666 5.25065 0.960329 5.22415 1.06654L1.20695 17.145H0.586545C0.450279 17.145 0.319594 17.196 0.22324 17.2867C0.126885 17.3774 0.0727539 17.5005 0.0727539 17.6288V19.5643C0.0727539 19.6927 0.126885 19.8157 0.22324 19.9065C0.319594 19.9972 0.450279 20.0482 0.586545 20.0482H9.32099V23.2653L5.47783 27.7901H3.73351C3.62155 27.7901 3.51264 27.8246 3.42337 27.8882C3.33411 27.9519 3.26936 28.0413 3.23899 28.1428L2.66098 30.0782C2.63945 30.1502 2.63591 30.2258 2.65064 30.2993C2.66537 30.3727 2.69797 30.442 2.74588 30.5016C2.79379 30.5612 2.8557 30.6095 2.92677 30.6428C2.99784 30.676 3.07613 30.6934 3.1555 30.6934H19.5968C19.6749 30.6933 19.7519 30.6766 19.8221 30.6443C19.8922 30.6121 19.9537 30.5652 20.0017 30.5072C20.0498 30.4493 20.0831 30.3818 20.0993 30.3099C20.1155 30.2379 20.1141 30.1635 20.0952 30.0921L19.5814 28.1567C19.5536 28.052 19.4895 27.9591 19.3992 27.8926C19.3089 27.8262 19.1976 27.7901 19.083 27.7901H17.2745L13.4313 23.2653V20.0482H19.083V21.9837C19.0833 22.0108 19.0859 22.0379 19.0907 22.0647C18.7466 22.1774 18.456 22.4012 18.2704 22.6964C18.0848 22.9916 18.0163 23.3392 18.0769 23.6775C18.1376 24.0158 18.3235 24.323 18.6017 24.5445C18.88 24.766 19.2325 24.8875 19.5968 24.8875C19.9611 24.8875 20.3136 24.766 20.5919 24.5445C20.8701 24.323 21.056 24.0158 21.1167 23.6775C21.1773 23.3392 21.1088 22.9916 20.9232 22.6964C20.7376 22.4012 20.447 22.1774 20.1029 22.0647C20.1077 22.0379 20.1103 22.0108 20.1106 21.9837V20.0482H22.1658C22.302 20.0482 22.4327 19.9972 22.5291 19.9065C22.6254 19.8157 22.6796 19.6927 22.6796 19.5643V17.6288C22.6796 17.5005 22.6254 17.3774 22.5291 17.2867C22.4327 17.196 22.302 17.145 22.1658 17.145ZM6.13163 1.6611H16.6207L20.4895 17.145H2.26279L6.13163 1.6611ZM18.6816 28.7579L18.9385 29.7256H3.8337L4.12271 28.7579H18.6816ZM15.9585 27.7901H6.79378L10.2362 23.7377C10.3089 23.6518 10.3485 23.5452 10.3486 23.4353V20.0482H12.4037V23.4353C12.4038 23.5452 12.4434 23.6518 12.5161 23.7377L15.9585 27.7901ZM20.1106 23.4353C20.1106 23.531 20.0805 23.6245 20.024 23.7041C19.9676 23.7837 19.8873 23.8457 19.7934 23.8823C19.6995 23.919 19.5962 23.9285 19.4966 23.9099C19.3969 23.8912 19.3054 23.8451 19.2335 23.7774C19.1616 23.7098 19.1127 23.6236 19.0929 23.5297C19.0731 23.4358 19.0832 23.3385 19.1221 23.2501C19.161 23.1617 19.2269 23.0861 19.3114 23.033C19.3959 22.9798 19.4952 22.9514 19.5968 22.9514C19.733 22.9516 19.8636 23.0026 19.9599 23.0933C20.0562 23.184 20.1104 23.307 20.1106 23.4353ZM21.652 19.0805H1.10034V18.1127H21.652V19.0805Z" fill="#535C69"/>
</svg>
