<svg width="24" height="31" viewBox="0 0 24 31" fill="none" xmlns="http://www.w3.org/2000/svg">
<path d="M22.7874 0.69336H1.38401C1.25924 0.69336 1.13958 0.740037 1.05136 0.823123C0.963137 0.906208 0.913574 1.0189 0.913574 1.1364V28.7313C0.913574 28.8488 0.963137 28.9615 1.05136 29.0446C1.13958 29.1277 1.25924 29.1744 1.38401 29.1744H3.48348L3.87139 30.3789C3.90069 30.4699 3.96028 30.5496 4.04137 30.6062C4.12245 30.6628 4.22072 30.6934 4.32166 30.6934H6.69264C6.81741 30.6934 6.93707 30.6467 7.02529 30.5636C7.11351 30.4805 7.16308 30.3678 7.16308 30.2503V29.1744H17.0078V30.2503C17.0078 30.3678 17.0573 30.4805 17.1455 30.5636C17.2338 30.6467 17.3534 30.6934 17.4782 30.6934H19.8492C19.9501 30.6934 20.0484 30.6628 20.1295 30.6062C20.2106 30.5496 20.2701 30.4699 20.2994 30.3789L20.6879 29.1744H22.7879C22.9127 29.1744 23.0323 29.1277 23.1206 29.0446C23.2088 28.9615 23.2583 28.8488 23.2583 28.7313V1.1364C23.2583 1.07817 23.2462 1.02052 23.2225 0.966737C23.1988 0.912952 23.1641 0.86409 23.1204 0.822943C23.0766 0.781797 23.0247 0.749173 22.9676 0.726939C22.9104 0.704704 22.8492 0.693293 22.7874 0.69336ZM22.3169 7.22501H12.5561V1.57944H22.3169V7.22501ZM1.85444 1.57944H11.6153V7.22501H1.85444V1.57944ZM1.85444 8.11108H11.6153V28.2883H1.85444V8.11108ZM6.22275 29.8073H4.67112L4.46736 29.1744H6.22275V29.8073ZM19.5002 29.8073H17.9486V29.1744H19.704L19.5002 29.8073ZM12.5561 28.2883V8.11108H22.3169V28.2883H12.5561Z" fill="#535C69"/>
<path d="M9.66623 3.19995C9.54149 3.20002 9.42187 3.24672 9.33367 3.32979C9.24546 3.41286 9.19587 3.52551 9.1958 3.64299V5.16198C9.1958 5.22016 9.20797 5.27777 9.23161 5.33152C9.25525 5.38527 9.2899 5.43411 9.33359 5.47525C9.37727 5.51639 9.42913 5.54903 9.48621 5.57129C9.54328 5.59355 9.60446 5.60501 9.66623 5.60501C9.72801 5.60501 9.78919 5.59355 9.84626 5.57129C9.90334 5.54903 9.9552 5.51639 9.99888 5.47525C10.0426 5.43411 10.0772 5.38527 10.1009 5.33152C10.1245 5.27777 10.1367 5.22016 10.1367 5.16198V3.64299C10.1366 3.52551 10.087 3.41286 9.9988 3.32979C9.91059 3.24672 9.79098 3.20002 9.66623 3.19995Z" fill="#535C69"/>
<path d="M14.5036 5.60501C14.6284 5.60501 14.7481 5.55834 14.8363 5.47525C14.9245 5.39217 14.9741 5.27948 14.9741 5.16198V3.64299C14.9741 3.52549 14.9245 3.4128 14.8363 3.32971C14.7481 3.24663 14.6284 3.19995 14.5036 3.19995C14.3789 3.19995 14.2592 3.24663 14.171 3.32971C14.0828 3.4128 14.0332 3.52549 14.0332 3.64299V5.16198C14.0332 5.27948 14.0828 5.39217 14.171 5.47525C14.2592 5.55834 14.3789 5.60501 14.5036 5.60501Z" fill="#535C69"/>
<path d="M9.66623 19.7505C9.791 19.7505 9.91066 19.7038 9.99888 19.6207C10.0871 19.5376 10.1367 19.4249 10.1367 19.3074V15.1188C10.1367 15.0013 10.0871 14.8886 9.99888 14.8055C9.91066 14.7225 9.791 14.6758 9.66623 14.6758C9.54147 14.6758 9.42181 14.7225 9.33359 14.8055C9.24536 14.8886 9.1958 15.0013 9.1958 15.1188V19.3074C9.1958 19.4249 9.24536 19.5376 9.33359 19.6207C9.42181 19.7038 9.54147 19.7505 9.66623 19.7505Z" fill="#535C69"/>
<path d="M14.5036 14.6758C14.3789 14.6758 14.2593 14.7225 14.1711 14.8056C14.0829 14.8887 14.0333 15.0013 14.0332 15.1188V19.3074C14.0332 19.4249 14.0828 19.5376 14.171 19.6207C14.2592 19.7038 14.3789 19.7505 14.5036 19.7505C14.6284 19.7505 14.7481 19.7038 14.8363 19.6207C14.9245 19.5376 14.9741 19.4249 14.9741 19.3074V15.1188C14.974 15.0013 14.9244 14.8887 14.8362 14.8056C14.748 14.7225 14.6284 14.6758 14.5036 14.6758Z" fill="#535C69"/>
</svg>
