<svg width="29" height="31" viewBox="0 0 29 31" fill="none" xmlns="http://www.w3.org/2000/svg">
<path d="M12.4349 6.12354C12.0061 6.12354 11.6572 6.45207 11.6572 6.85596V7.83418C11.6572 8.23807 12.0061 8.5666 12.4349 8.5666H17.0254C17.4543 8.5666 17.8031 8.23807 17.8031 7.83418V6.85596C17.8031 6.45207 17.4543 6.12354 17.0254 6.12354H12.4349ZM16.8699 7.6877H12.5905V7.00244H16.8699V7.6877Z" fill="#535C69"/>
<path d="M12.4349 13.2539C12.0061 13.2539 11.6572 13.5824 11.6572 13.9863V14.9646C11.6572 15.3684 12.0061 15.697 12.4349 15.697H17.0254C17.4543 15.697 17.8031 15.3684 17.8031 14.9646V13.9863C17.8031 13.5824 17.4543 13.2539 17.0254 13.2539H12.4349ZM16.8699 14.8181H12.5905V14.1328H16.8699V14.8181Z" fill="#535C69"/>
<path d="M12.4349 22.8278H17.0254C17.4543 22.8278 17.8031 22.4993 17.8031 22.0954V21.1172C17.8031 20.7133 17.4543 20.3848 17.0254 20.3848H12.4349C12.0061 20.3848 11.6572 20.7133 11.6572 21.1172V22.0954C11.6572 22.4993 12.0061 22.8278 12.4349 22.8278ZM12.5905 21.2637H16.8699V21.9489H12.5905V21.2637Z" fill="#535C69"/>
<path d="M27.7707 0.693359H1.69129C1.26242 0.693359 0.913574 1.02189 0.913574 1.42578V3.48687C0.913574 3.89076 1.26242 4.2193 1.69129 4.2193H2.38283V27.0171C2.38283 27.5825 2.87129 28.0425 3.47162 28.0425H4.01173V29.9609C4.01173 30.3648 4.36058 30.6934 4.78944 30.6934H8.1917C8.62056 30.6934 8.96941 30.3648 8.96941 29.9609V28.0425H9.94031C10.198 28.0425 10.4069 27.8458 10.4069 27.6031C10.4069 27.3604 10.198 27.1636 9.94031 27.1636H3.47156C3.38582 27.1636 3.31602 27.0979 3.31602 27.0171V18.4804H19.4595C19.7172 18.4804 19.9261 18.2836 19.9261 18.0409C19.9261 17.7982 19.7172 17.6015 19.4595 17.6015H3.31602V11.3498H26.1459V17.6015H18.9425C18.6848 17.6015 18.4759 17.7982 18.4759 18.0409C18.4759 18.2836 18.3381 18.4804 18.5958 18.4804H26.146V27.0171C26.146 27.0979 26.0762 27.1636 25.9905 27.1636H8.21596C7.95826 27.1636 8.21596 27.3604 8.21596 27.6031C8.21596 27.8458 7.95826 28.0425 8.21596 28.0425H20.4927V29.9609C20.4927 30.3648 20.8415 30.6934 21.2704 30.6934H24.6726C25.1015 30.6934 25.4504 30.3648 25.4504 29.9609V28.0425H25.9905C26.5908 28.0425 27.0793 27.5825 27.0793 27.0171V8.13477C27.0793 7.89207 26.8703 7.69531 26.6126 7.69531C26.3549 7.69531 26.146 7.89207 26.146 8.13477V10.4709H3.31602V4.2193H26.1459V8.30599C26.1459 8.54868 26.3549 8.13477 26.6126 8.13477C26.8703 8.13477 27.0792 8.37012 27.0792 8.12743V4.2193H27.7707C28.1996 4.2193 28.5484 3.89076 28.5484 3.48687V1.42578C28.5484 1.02189 28.1996 0.693359 27.7707 0.693359ZM8.0361 29.8145H4.94492V28.0425H8.0361V29.8145ZM24.5171 29.8145H21.4259V28.0425H24.5171V29.8145ZM7.01083 3.34039H1.84683V1.57227H7.01083V3.34039ZM27.6152 3.34039H7.94408V1.57227H27.6152L27.6152 3.34039Z" fill="#535C69"/>
</svg>
