<svg width="33" height="31" viewBox="0 0 33 31" fill="none" xmlns="http://www.w3.org/2000/svg">
<path d="M1.48917 30.6935H31.7265C32.0245 30.6935 32.2664 30.4656 32.2664 30.1849V15.9467C32.2664 15.666 32.0245 15.4382 31.7265 15.4382H17.1478V1.70846C17.1478 1.42776 16.9059 1.19995 16.6078 1.19995H1.48917C1.19112 1.19995 0.949219 1.42776 0.949219 1.70846V30.1849C0.949219 30.4656 1.19112 30.6935 1.48917 30.6935ZM16.0679 21.5144C13.2175 21.2662 10.9594 19.1396 10.6959 16.4552H16.0679V21.5144ZM16.0679 22.538V24.0671C11.724 23.8057 8.26287 20.5462 7.98534 16.4552H9.60897C9.87949 19.7031 12.6192 22.2832 16.0679 22.538ZM17.1478 16.4552H22.5198C22.2563 19.1396 19.9982 21.2662 17.1478 21.5144V16.4552ZM10.6959 15.4382C10.9594 12.7538 13.2175 10.6272 16.0679 10.379V15.4382H10.6959ZM16.0679 9.35541C12.6192 9.61018 9.87949 12.1904 9.60897 15.4382H7.98534C8.26287 11.3472 11.724 8.0877 16.0679 7.82633V9.35541ZM6.91623 16.4552C7.19538 21.102 11.1338 24.811 16.0679 25.0739V29.6764H9.56091C9.28662 25.8713 6.06958 22.8416 2.02912 22.5833V16.4552H6.91623ZM2.02912 25.6384C4.28288 25.8789 6.06149 27.5539 6.31688 29.6764H2.02912V25.6384ZM7.40435 29.6764C7.14031 26.9905 4.88115 24.8629 2.02912 24.6142V23.5937C5.4778 23.8484 8.21751 26.4286 8.48803 29.6764H7.40435ZM24.7276 29.6764C24.9981 26.4286 27.7379 23.8484 31.1865 23.5937V24.6142C28.3345 24.8629 26.0754 26.9905 25.8113 29.6764H24.7276ZM26.8988 29.6764C27.1542 27.5539 28.9328 25.8789 31.1865 25.6384V29.6764H26.8988ZM31.1865 22.5833C27.1461 22.8416 23.929 25.8713 23.6547 29.6764H17.1478V25.0739C22.0819 24.811 26.0203 21.102 26.2994 16.4552H31.1865V22.5833ZM25.2303 16.4552C24.9528 20.5462 21.4917 23.8057 17.1478 24.0671V22.538C20.5965 22.2832 23.3362 19.7031 23.6067 16.4552H25.2303ZM16.0679 6.81948C11.1338 7.08238 7.19538 10.7914 6.91623 15.4382H2.02912V9.31016C6.06958 9.05183 9.28662 6.02214 9.56091 2.21697H16.0679V6.81948ZM8.48803 2.21697C8.21751 5.46481 5.4778 8.04499 2.02912 8.29975V7.27917C4.88115 7.03051 7.14031 4.90291 7.40435 2.21697H8.48803ZM6.31688 2.21697C6.06149 4.33948 4.28288 6.01451 2.02912 6.25504V2.21697H6.31688Z" fill="#535C69"/>
<path d="M18.5506 9.55946L19.0403 10.4814C19.0986 10.5922 19.1634 10.7006 19.232 10.8073L18.2515 13.7618C18.1618 14.0298 18.32 14.315 18.6046 14.3994C18.657 14.4147 18.7115 14.4228 18.7666 14.4228C18.8216 14.4228 18.8762 14.4152 18.9286 14.4L22.0106 13.4923L23.8464 14.5296C24.3119 14.792 24.8437 14.9313 25.3864 14.9313H27.1272C28.7816 14.9313 30.1223 13.6687 30.1228 12.1112C30.1228 11.7522 30.05 11.3967 29.9085 11.0631L29.6072 10.3548C30.1909 8.96095 30.152 7.40389 29.4992 6.03702L32.6396 3.07903C32.8501 2.8802 32.8501 2.55882 32.6396 2.36L31.0273 0.842098C30.8167 0.64378 30.4744 0.64378 30.2638 0.842098L27.2811 3.6511C26.6261 3.26006 25.895 2.99512 25.131 2.87156L24.6888 2.80189C24.3707 2.75206 24.0489 2.72714 23.7266 2.72714H23.0128C20.2428 2.74036 18.009 4.86542 18.0225 7.47356C18.0263 8.19768 18.2072 8.91162 18.5506 9.55946ZM21.1737 8.36396C21.5403 7.27117 22.6159 6.52773 23.8324 6.52519C23.9231 6.52519 24.0154 6.52926 24.1072 6.5379C24.5608 6.58214 24.996 6.73165 25.3734 6.97319L24.3243 7.96122L25.0878 8.68025L26.1369 7.69222C26.3934 8.04767 26.5521 8.45752 26.5991 8.88467C26.7265 10.1209 25.9177 11.2726 24.6602 11.6469L19.5889 13.1394L21.1737 8.36396ZM28.6023 9.98203L28.524 10.1661C28.4733 10.2876 28.4733 10.4224 28.524 10.5439L28.9053 11.4409C29.2983 12.3649 28.8221 13.4145 27.841 13.7847C27.6137 13.8706 27.3718 13.9143 27.1272 13.9143H25.3864C25.0397 13.9148 24.699 13.8274 24.401 13.6601L23.3902 13.089L24.982 12.6202C26.7303 12.102 27.854 10.5012 27.6758 8.78348C27.6034 8.12242 27.3389 7.49339 26.9112 6.96505L27.408 6.49722L27.8281 6.89284C28.0386 7.09116 28.381 7.09116 28.5915 6.89284L28.6677 6.82165C29.05 7.84833 29.0267 8.9701 28.6023 9.98203ZM30.6455 1.92065L31.4938 2.71951L28.2076 5.8143L27.3594 5.01543L30.6455 1.92065ZM20.0085 5.0734C20.7498 4.23131 21.8513 3.74416 23.0128 3.74416H23.7266C23.9895 3.74467 24.2519 3.76501 24.5111 3.80518L24.9533 3.87484C25.496 3.96078 26.0192 4.13367 26.4998 4.3864L26.2141 4.65591C26.0036 4.85474 26.0036 5.17663 26.2141 5.37494L26.6423 5.77819L26.1456 6.24602C24.4561 5.03526 22.0441 5.34342 20.7579 6.93454C20.4842 7.27321 20.2763 7.65408 20.1435 8.06038L19.6894 9.42979L19.5166 9.10435C19.3573 8.80382 19.2423 8.48397 19.1737 8.15445C18.9399 7.06065 19.2471 5.92566 20.0085 5.07086V5.0734Z" fill="#535C69"/>
</svg>
