<svg width="33" height="31" viewBox="0 0 33 31" fill="none" xmlns="http://www.w3.org/2000/svg">
<path d="M29.0323 16.1316H24.8521L24.8067 16.5232C24.6242 18.0932 23.9337 19.5473 22.8098 20.7284L23.5047 21.3149C24.6656 20.0951 25.4124 18.6138 25.679 17.0104H28.0991V20.5999C24.8684 20.8158 22.2791 23.2544 22.0498 26.2969H18.2384V24.0177C19.941 23.7665 21.5139 23.0632 22.8091 21.97L22.1862 21.3156C20.9323 22.374 19.3882 23.0243 17.7211 23.1962L17.3052 23.239V27.1758H22.9665V26.7363C22.9665 23.8288 25.4783 21.4633 28.5657 21.4633H29.0323V16.1316Z" fill="#535C69"/>
<path d="M28.5673 9.04264H29.0339V4.20898H23.9014V4.64841C23.9014 7.07139 25.9945 9.04264 28.5673 9.04264ZM28.1007 5.08783V8.13649C26.4148 7.93758 25.0748 6.6755 24.8635 5.08783H28.1007Z" fill="#535C69"/>
<path d="M17.3052 4.20898V8.14575L17.721 8.18858C21.4217 8.57 24.4016 11.3764 24.8067 14.8615L24.8521 15.2532H29.0323V9.92149H28.5657C27.2296 9.92149 25.9359 9.47087 24.9227 8.65261L24.3152 9.31971C25.3789 10.1789 26.7078 10.6907 28.099 10.7846V14.3743H25.6786C25.3854 12.6271 24.5029 10.9916 23.1665 9.73301C21.8303 8.47456 20.0935 7.6434 18.2383 7.36733V5.08783H22.05C22.1497 6.39813 22.6932 7.64961 23.6055 8.65132L24.3138 8.07913C23.445 7.12517 22.9665 5.9068 22.9665 4.64841V4.20898H17.3052Z" fill="#535C69"/>
<path d="M31.8333 29.8145H1.84676V5.0896H0.913574V30.6933H32.7665V27.1779H31.8333V29.8145Z" fill="#535C69"/>
<path d="M9.78001 4.6489V4.20947H4.64746V9.04313H5.11406C7.68686 9.04313 9.78001 7.07188 9.78001 4.6489ZM5.58065 5.08832H8.81782C8.60655 6.67599 7.26649 7.93807 5.58065 8.13698V5.08832Z" fill="#535C69"/>
<path d="M4.64746 15.2536H8.82759L8.87307 14.862C9.27807 11.3769 12.258 8.57049 15.9588 8.18901L16.3746 8.14612V4.20947H10.7132V4.6489C10.7132 7.55647 8.20142 9.92198 5.11406 9.92198H4.64746V15.2536ZM5.58065 10.7853C8.81129 10.5694 11.4006 8.13083 11.6299 5.08832H15.4414V7.36776C13.5862 7.64389 11.8495 8.47499 10.5131 9.73349C9.17679 10.992 8.29424 12.6276 8.0011 14.3748H5.58065V10.7853Z" fill="#535C69"/>
<path d="M9.82594 16.6324C10.264 19.5549 12.7374 21.8841 15.8405 22.2968L16.3724 22.3675V20.2223C16.3724 17.9667 14.4239 16.1316 12.0288 16.1316H9.75098L9.82594 16.6324ZM12.0288 17.0104C13.9093 17.0104 15.4392 18.4513 15.4392 20.2223V21.333C13.1732 20.8345 11.3786 19.1445 10.8495 17.0105H12.0288V17.0104Z" fill="#535C69"/>
<path d="M11.4905 11.3198C10.5923 12.2934 10.0167 13.4802 9.82607 14.7522L9.75098 15.253H12.0288C14.4239 15.253 16.3724 13.4179 16.3724 11.1624V9.01709L15.8405 9.08781C14.4902 9.26739 13.2299 9.8094 12.196 10.6553L12.808 11.3187C13.5683 10.6966 14.4693 10.2639 15.4392 10.0514V11.1623C15.4392 12.9333 13.9093 14.3741 12.0288 14.3741H10.8492C11.0749 13.4606 11.5344 12.6121 12.1949 11.8961L11.4905 11.3198Z" fill="#535C69"/>
<path d="M4.64746 27.1759H9.78001V26.7365C9.78001 25.7424 9.41731 24.7681 8.75872 23.9931L8.03009 24.5422C8.46626 25.0554 8.73452 25.6553 8.81838 26.2971H5.58065V23.2479C6.26225 23.3269 6.89919 23.5796 7.44404 23.9902L8.02716 23.3041C7.20434 22.6839 6.1698 22.3423 5.11406 22.3423H4.64746V27.1759Z" fill="#535C69"/>
<path d="M4.64746 21.4633H5.11406C8.20142 21.4633 10.7132 23.8288 10.7132 26.7363V27.1758H16.3746V23.2391L15.9588 23.1962C12.2581 22.8148 9.27807 20.0083 8.87307 16.5232L8.82759 16.1316H4.64746V21.4633ZM5.58065 17.0104H8.0011C8.29424 18.7576 9.17673 20.3932 10.5131 21.6517C11.8494 22.9103 13.5862 23.7414 15.4414 24.0175V26.2969H11.6299C11.4006 23.2544 8.81123 20.8158 5.58065 20.5999V17.0104Z" fill="#535C69"/>
<path d="M0.914062 0.693359V5.70865H1.84725V1.57221H31.8338V27.797H32.767V0.693359H0.914062Z" fill="#535C69"/>
<path d="M17.3052 11.1624C17.3052 13.4179 19.2538 15.253 21.6489 15.253H23.9267L23.8516 14.7522C23.4135 11.8298 20.9403 9.50046 17.837 9.08781L17.3052 9.01709V11.1624H17.3052ZM18.2384 10.0517C20.5045 10.5501 22.299 12.2401 22.8282 14.3741H21.6489C19.7683 14.3741 18.2384 12.9333 18.2384 11.1624V10.0517Z" fill="#535C69"/>
<path d="M23.8516 16.6324L23.9266 16.1316H21.6488C19.2537 16.1316 17.3052 17.9667 17.3052 20.2223V22.3675L17.837 22.2968C20.9402 21.8841 23.4135 19.5549 23.8516 16.6324ZM18.2383 20.2223C18.2383 18.4513 19.7682 17.0104 21.6487 17.0104H22.828C22.2989 19.1445 20.5043 20.8345 18.2383 21.3329V20.2223Z" fill="#535C69"/>
<path d="M16.8393 13.3076L16.4489 13.8699C16.0492 14.4454 15.5149 14.9486 14.9037 15.325L14.3066 15.6927L14.9037 16.0605C15.5149 16.437 16.0492 16.9401 16.4489 17.5156L16.8393 18.0779L17.2298 17.5157C17.6295 16.9401 18.1638 16.4369 18.7749 16.0606L19.372 15.6929L18.7749 15.3251C18.1638 14.9486 17.6295 14.4454 17.2298 13.87L16.8393 13.3076ZM17.7318 15.6927C17.406 15.9438 17.1059 16.2264 16.8393 16.5332C16.5727 16.2264 16.2727 15.9438 15.9469 15.6928C16.2726 15.4418 16.5727 15.1591 16.8393 14.8523C17.1059 15.1591 17.406 15.4417 17.7318 15.6927Z" fill="#535C69"/>
<path d="M23.9014 26.7365V27.1759H29.0339V22.3423H28.5673C25.9945 22.3423 23.9014 24.3135 23.9014 26.7365ZM28.1007 26.2971H24.8635C25.0748 24.7094 26.4149 23.4473 28.1007 23.2484V26.2971Z" fill="#535C69"/>
</svg>
