<svg width="157" height="36" viewBox="0 0 157 36" fill="none" xmlns="http://www.w3.org/2000/svg">
<path d="M0.783491 0.700349C2.0745 0.700349 3.36551 0.686358 4.65652 0.705013C4.66118 0.779631 4.66584 0.858913 4.6705 0.933531C4.6705 4.93027 4.6705 8.92701 4.6705 12.9191C4.67516 13.1896 4.65186 13.4647 4.68914 13.7352C4.70313 13.7166 4.73109 13.6793 4.74507 13.6559C5.11327 13.3481 5.49078 13.0403 5.92423 12.8212C7.54148 11.9351 9.54558 11.7905 11.2794 12.4247C12.1416 12.7512 12.9246 13.2875 13.5305 13.9871C14.3694 14.9245 14.8681 16.1277 15.0778 17.3589C15.1198 17.5874 15.1104 17.8206 15.1104 18.0491C15.1104 20.7354 15.1104 23.4263 15.1104 26.1125C15.1151 27.0919 15.0918 28.0759 15.1011 29.0553C15.0965 29.1346 15.1244 29.2698 15.0032 29.2652C13.8707 29.2698 12.7381 29.2652 11.6103 29.2698C11.5077 29.2698 11.4052 29.2652 11.3073 29.2558C11.326 28.1319 11.2933 27.008 11.3306 25.884C11.3306 23.6455 11.3306 21.4069 11.3306 19.1684C11.3073 18.0165 10.5616 16.9392 9.5316 16.4495C8.69733 16.0391 7.6813 15.9738 6.81442 16.3236C5.63992 16.7853 4.81032 17.9652 4.69847 19.2103C4.69381 22.5215 4.69847 25.8374 4.69381 29.1486C4.71245 29.2278 4.65186 29.2792 4.57729 29.2605C3.31424 29.2652 2.0512 29.2652 0.788152 29.2605C0.769509 26.7095 0.778831 24.1538 0.77417 21.5981C0.77417 14.8825 0.77417 8.16684 0.77417 1.4512C0.778831 1.19936 0.769509 0.947522 0.783491 0.700349ZM122.637 0.709677C123.933 0.71434 125.233 0.695686 126.529 0.719004C126.533 4.61315 126.529 8.51195 126.529 12.4061C126.538 12.8258 126.505 13.2502 126.543 13.6746C127.158 13.115 127.876 12.6579 128.663 12.3828C129.829 11.9677 131.11 11.8884 132.317 12.1496C133.124 12.3175 133.883 12.6812 134.55 13.1663C135.244 13.7072 135.822 14.3928 136.223 15.1763C136.619 15.9271 136.857 16.7526 136.969 17.5921C136.969 18.7113 136.978 19.8259 136.959 20.9452C136.959 22.4236 136.959 23.8973 136.959 25.3757C136.95 26.6628 136.983 27.9453 136.927 29.2325C135.673 29.2372 134.419 29.2372 133.17 29.2325C133.147 27.9034 133.18 26.5696 133.17 25.2358C133.175 23.2631 133.161 21.2857 133.18 19.3129C133.189 18.8652 133.11 18.4129 132.923 18.0071C132.602 17.247 131.954 16.6547 131.203 16.3329C130.332 15.9691 129.302 15.9598 128.449 16.3795C127.386 16.8972 126.659 18.0071 126.538 19.173C126.51 22.5215 126.543 25.8747 126.51 29.2232C125.219 29.2418 123.928 29.2278 122.637 29.2278C122.604 28.7242 122.637 28.2158 122.623 27.7075C122.623 19.5928 122.623 11.478 122.623 3.36329C122.632 2.4772 122.618 1.5911 122.637 0.709677ZM43.3961 13.7166C44.524 12.6952 46.0248 12.1076 47.5441 12.075C48.8445 12.0283 50.1588 12.3734 51.2587 13.073C52.573 13.9078 53.5797 15.2369 53.9572 16.7526C54.1763 17.5221 54.1343 18.3336 54.139 19.1264C54.1576 20.2317 54.1483 21.3323 54.1483 22.4376C54.1437 24.7134 54.167 26.994 54.153 29.2698C52.876 29.2745 51.5943 29.2698 50.3172 29.2698C50.2986 25.9493 50.3172 22.6288 50.3079 19.3129C50.3033 18.3616 49.7859 17.4568 49.0309 16.8972C47.9636 16.0764 46.4209 15.9598 45.2278 16.5754C44.4261 16.9765 43.783 17.7087 43.5453 18.5808C43.3961 19.0751 43.4381 19.5974 43.4288 20.1104C43.4241 22.0085 43.4381 23.902 43.4194 25.8001C43.4148 26.9473 43.4288 28.0946 43.4148 29.2418L43.3915 29.2698C42.0958 29.2838 40.8048 29.2698 39.5091 29.2745C39.4858 28.4583 39.5045 27.6422 39.4998 26.8214C39.5045 24.317 39.4905 21.8173 39.5091 19.3129C39.5091 17.0184 39.5045 14.7239 39.5138 12.4294C39.7701 12.4294 40.0265 12.4294 40.2874 12.4294C41.2429 12.476 42.1983 12.4341 43.1584 12.4527C43.1678 12.9377 43.1538 13.4181 43.1678 13.9031C43.2563 13.8751 43.3216 13.7865 43.3961 13.7166ZM78.9898 12.3968C80.1876 12.019 81.4786 11.9677 82.709 12.2056C84.028 12.4387 85.2724 13.0963 86.1999 14.0663C86.1999 13.5254 86.1905 12.9844 86.2045 12.4434C87.3837 12.4574 88.5675 12.4434 89.7466 12.4527C89.7606 17.5687 89.7327 22.6848 89.742 27.7961C89.7373 28.3091 89.7187 28.8314 89.5835 29.3305C89.3551 30.2539 88.8937 31.1026 88.3344 31.8675C87.2765 33.2526 85.8643 34.3718 84.2563 35.0481C83.1564 35.5051 81.9586 35.757 80.7702 35.6823C78.7381 35.5984 76.7107 34.8335 75.2006 33.4578C74.2685 32.6276 73.5414 31.5597 73.136 30.3798C74.4922 30.3798 75.8531 30.3658 77.2094 30.3704C77.7594 30.9954 78.4631 31.4897 79.2368 31.7882C80.2062 32.1566 81.2875 32.2359 82.2942 31.9841C83.9581 31.5877 85.3702 30.2958 85.9249 28.6775C86.1626 28.0386 86.2465 27.3531 86.2278 26.6768C85.3236 27.6562 84.2237 28.4817 82.9514 28.9154C81.94 29.2792 80.8354 29.2792 79.7868 29.1019C77.997 28.7941 76.3332 27.8381 75.1307 26.481C74.5342 25.8001 74.0308 25.0352 73.6766 24.2004C72.847 22.3117 72.6932 20.1151 73.3317 18.147C74.1753 15.4888 76.3099 13.2269 78.9898 12.3968ZM81.0079 16.0391C79.7728 16.151 78.6123 16.8132 77.8526 17.7926C77.1814 18.6554 76.8086 19.756 76.8459 20.8519C76.8365 22.6568 77.9691 24.401 79.619 25.1285C80.5371 25.5389 81.6044 25.6322 82.5785 25.3617C83.3615 25.1658 84.0746 24.7321 84.6432 24.1631C85.3097 23.4916 85.7664 22.6195 85.9435 21.6914C86.1393 20.6561 86.0041 19.5508 85.5194 18.6134C85.1279 17.7973 84.4847 17.1117 83.711 16.65C82.9094 16.1603 81.9446 15.9551 81.0079 16.0391ZM99.3476 12.518C100.135 12.2009 100.988 12.0517 101.836 12.061C101.846 12.8631 101.832 13.6653 101.836 14.4628C101.827 14.9058 101.855 15.3489 101.827 15.7919C100.834 15.8245 99.8324 16.1277 99.04 16.7433C98.4295 17.2143 97.9588 17.9232 97.9121 18.7067C97.9028 21.1644 97.9215 23.6175 97.9028 26.0752C97.8982 27.1152 97.9075 28.1552 97.8982 29.1905C97.9075 29.2792 97.7956 29.2605 97.7397 29.2652C96.4953 29.2652 95.2509 29.2652 94.0065 29.2652C93.9273 29.2838 93.8713 29.2278 93.8946 29.1532C93.8946 24.0839 93.8946 19.0145 93.8946 13.9451C93.8993 13.4461 93.8853 12.9471 93.8993 12.4434C95.1204 12.4527 96.3462 12.4527 97.5673 12.4434C97.5812 12.9098 97.5533 13.3761 97.5766 13.8425C98.0007 13.2176 98.6672 12.8118 99.3476 12.518ZM110.44 12.1123C111.838 12.0097 113.264 12.2475 114.537 12.8491C116.564 13.7819 118.167 15.554 118.95 17.6387C119.892 20.1104 119.687 23.0019 118.354 25.2964C117.254 27.2365 115.371 28.7335 113.213 29.3025C111.577 29.7362 109.806 29.6662 108.222 29.0693C106.889 28.5749 105.691 27.7262 104.768 26.6442C103.799 25.5109 103.118 24.1352 102.825 22.6708C102.456 20.8753 102.638 18.9678 103.365 17.2843C103.994 15.8152 105.034 14.5187 106.339 13.6C107.541 12.7512 108.972 12.2242 110.44 12.1123ZM110.585 16.0391C109.037 16.1883 107.658 17.2376 106.977 18.6181C106.259 20.0498 106.297 21.822 107.066 23.2257C107.425 23.888 107.947 24.4663 108.571 24.886C109.224 25.3384 109.997 25.5949 110.79 25.6508C111.465 25.6928 112.151 25.5669 112.775 25.3057C113.912 24.83 114.821 23.86 115.283 22.7221C115.818 21.4116 115.763 19.8726 115.129 18.6041C114.667 17.6713 113.898 16.8879 112.952 16.4401C112.22 16.095 111.391 15.9458 110.585 16.0391ZM145.661 12.6486C147.674 11.8371 150.019 11.9117 151.981 12.8258C153.579 13.5627 154.912 14.8265 155.779 16.3515C156.53 17.6713 156.93 19.187 156.954 20.7074C156.958 21.2623 156.982 21.822 156.902 22.377C154.488 22.3909 152.069 22.377 149.655 22.3816C147.917 22.3816 146.178 22.3863 144.435 22.377C144.351 22.377 144.267 22.3723 144.188 22.377C144.132 22.4189 144.179 22.5029 144.188 22.5635C144.444 23.4449 144.99 24.2378 145.717 24.7927C146.537 25.441 147.59 25.7814 148.639 25.7628C150.028 25.7674 151.398 25.0912 152.246 23.9906C152.689 23.9533 153.137 23.9813 153.579 23.9719C154.516 23.9766 155.448 23.9626 156.385 23.9766C156.362 24.1958 156.245 24.3917 156.161 24.5922C155.197 26.7654 153.295 28.533 151.007 29.2232C150.065 29.5357 149.063 29.6243 148.08 29.5683C146.034 29.4517 144.076 28.4817 142.673 26.994C141.476 25.7068 140.66 24.0652 140.39 22.3257C140.031 20.1571 140.469 17.8532 141.653 15.9971C142.594 14.5047 144.006 13.2922 145.661 12.6486ZM144.402 18.8186C147.255 18.8326 150.107 18.8186 152.959 18.8093C152.866 18.4315 152.671 18.0864 152.451 17.7693C151.603 16.5474 150.102 15.8432 148.63 15.8805C146.803 15.8665 145.004 17.0744 144.402 18.8186ZM22.19 13.6699C23.5975 12.6766 25.3127 12.0983 27.0418 12.1263C27.6896 12.1123 28.3328 12.2149 28.9527 12.4061C29.992 12.7559 30.8775 13.4368 31.6792 14.1689C31.7491 13.5953 31.6978 13.0077 31.7165 12.4294C32.9795 12.4247 34.2472 12.4294 35.5103 12.4294C35.5382 13.1523 35.5149 13.8751 35.5196 14.6027C35.5196 17.5081 35.5196 20.4182 35.5196 23.3237C35.5149 25.3057 35.5289 27.2924 35.5103 29.2745C35.0442 29.2931 34.5781 29.2652 34.112 29.2698C33.7578 29.2652 33.4036 29.2745 33.0494 29.2652C32.5973 29.2278 32.1452 29.2652 31.6931 29.2418C31.6745 28.7102 31.7025 28.1739 31.6745 27.6422C30.9894 28.2438 30.2623 28.8174 29.4141 29.1672C28.5006 29.5543 27.4939 29.6476 26.5151 29.5916C24.814 29.503 23.1594 28.8454 21.8218 27.7961C20.3304 26.6302 19.2351 24.9653 18.7504 23.1325C18.289 21.3883 18.3776 19.4995 19.0068 17.8066C19.6266 16.151 20.7452 14.6819 22.19 13.6699ZM26.4499 16.0717C24.8699 16.2723 23.4717 17.3822 22.8378 18.8326C22.1108 20.4369 22.3298 22.4236 23.4111 23.818C24.2966 25.0073 25.7834 25.7255 27.2702 25.6462C28.2675 25.5995 29.237 25.2031 29.9967 24.5549C31.2038 23.5382 31.847 21.9013 31.6652 20.3343C31.5254 18.7673 30.5606 17.2983 29.1671 16.5661C28.3468 16.123 27.3774 15.9458 26.4499 16.0717ZM59.6852 13.0777C60.6407 12.5227 61.7359 12.2382 62.8358 12.1776C64.7514 12.0377 66.7415 12.6206 68.2049 13.8891C69.235 14.7799 69.9947 16.0251 70.1811 17.3869C68.7596 17.3962 67.3427 17.3822 65.9212 17.3822C65.8886 16.9671 65.6416 16.6127 65.3433 16.3375C64.7188 15.7779 63.8659 15.4514 63.0223 15.5167C62.5469 15.5494 62.0668 15.652 61.6474 15.8945C61.2605 16.0904 60.9203 16.4401 60.8411 16.8832C60.7898 17.2563 60.9529 17.6434 61.2279 17.8905C61.5775 18.1843 62.0156 18.3569 62.4537 18.4642C62.8219 18.5714 63.204 18.5994 63.5722 18.6927C64.248 18.8419 64.9238 18.9725 65.5996 19.1217C66.4292 19.2756 67.2635 19.4762 68.0139 19.8679C68.8202 20.269 69.5519 20.8753 69.9853 21.6774C70.498 22.6008 70.5959 23.7108 70.4281 24.7414C70.279 25.6742 69.8968 26.5696 69.3095 27.3111C68.7689 27.992 68.0791 28.5516 67.2961 28.9387C66.3873 29.3957 65.3759 29.6383 64.3599 29.6802C63.9078 29.6756 63.4557 29.7082 63.0083 29.6336C61.0741 29.4051 59.1865 28.477 57.9514 26.9473C57.3595 26.1965 56.9214 25.3057 56.7909 24.3543C56.763 24.1352 56.7397 23.916 56.735 23.6968C56.9913 23.6735 57.2523 23.7108 57.5087 23.7061C58.6086 23.7061 59.7132 23.7061 60.8178 23.7061C60.8364 24.2284 61.0508 24.7461 61.419 25.1192C61.955 25.7161 62.738 26.0333 63.521 26.1312C64.0663 26.1685 64.6209 26.1498 65.1475 25.982C65.5623 25.8607 65.9632 25.6415 66.2428 25.3057C66.5457 24.9513 66.6623 24.4523 66.5737 23.9952C66.5178 23.7994 66.4339 23.6082 66.2801 23.4729C65.9399 23.1278 65.4691 22.9646 65.017 22.8387C64.3739 22.6474 63.7074 22.5822 63.0549 22.4562C62.1554 22.2884 61.2652 22.0738 60.4169 21.7287C59.5268 21.3743 58.6692 20.8893 57.9934 20.199C57.4108 19.6068 57.0146 18.8046 56.996 17.9652C56.9447 16.9018 57.2011 15.8152 57.7697 14.9151C58.2404 14.1456 58.9069 13.5114 59.6852 13.0777Z" fill="#525C66"/>
</svg>
