<svg width="118" height="36" viewBox="0 0 118 36" fill="none" xmlns="http://www.w3.org/2000/svg">
<path d="M115.184 22.2814C115.184 22.3912 115.184 22.5971 115.184 22.7069C115.431 22.7069 115.692 22.6931 115.939 22.6657C115.939 22.5971 115.953 22.4461 115.953 22.3774C115.72 22.2951 115.445 22.2814 115.184 22.2814ZM114.84 21.9931C115.294 22.0343 115.816 21.8696 116.214 22.1441C116.434 22.4735 116.297 22.9814 115.857 23.0088C115.994 23.2284 116.118 23.448 116.255 23.6814C116.146 23.6814 115.926 23.6676 115.816 23.6676C115.651 23.4069 115.61 22.9265 115.198 22.9676C115.198 23.201 115.198 23.448 115.198 23.6951C115.101 23.6951 114.923 23.6951 114.84 23.6951C114.827 23.1186 114.827 22.5559 114.84 21.9931ZM115.115 21.6637C114.085 21.8971 113.92 23.4755 114.84 23.9559C115.624 24.4637 116.819 23.8186 116.723 22.8716C116.791 22.0343 115.871 21.3892 115.115 21.6637ZM114.992 21.2931C116.008 20.95 117.162 21.801 117.107 22.8716C117.162 23.901 116.077 24.7382 115.088 24.4637C114.071 24.2716 113.508 22.9951 114.016 22.1029C114.222 21.7049 114.579 21.4167 114.992 21.2931ZM104.138 24.1206C104.152 25.2598 104.124 26.399 104.152 27.5519C104.963 27.5245 105.828 27.6068 106.597 27.2912C107.271 26.9755 107.394 26.1382 107.298 25.4794C107.257 24.9441 106.927 24.4225 106.391 24.2716C105.663 24.0657 104.894 24.1069 104.138 24.1206ZM100.566 21.2382C102.476 21.2382 104.386 21.2382 106.281 21.2382C107.545 21.252 108.892 21.5814 109.84 22.4735C110.691 23.2696 111.049 24.4774 111.049 25.6167C111.076 26.8245 110.856 28.1421 110.018 29.0617C109.249 29.9402 108.067 30.297 106.941 30.3794C106.007 30.4343 105.086 30.3794 104.152 30.4068C104.152 31.9304 104.152 33.4402 104.152 34.9637C102.957 34.9637 101.775 34.9637 100.58 34.9637C100.566 30.3931 100.58 25.8088 100.566 21.2382ZM90.5373 21.2382C93.1476 21.2382 95.7578 21.2382 98.3819 21.2382C98.3819 22.2402 98.3819 23.2559 98.3819 24.2578C96.9668 24.2578 95.538 24.2578 94.123 24.2578C94.123 25.0127 94.123 25.7814 94.123 26.5363C95.4693 26.5363 96.8019 26.5363 98.1483 26.5363C98.1483 27.5382 98.1483 28.5539 98.1483 29.5559C96.8019 29.5696 95.4556 29.5421 94.1092 29.5696C94.123 30.3657 94.0955 31.1617 94.123 31.9441C95.538 31.9304 96.9531 31.9304 98.3681 31.9304C98.3681 32.9323 98.3681 33.948 98.3681 34.95C95.7578 34.95 93.1476 34.95 90.5373 34.95C90.5373 30.3931 90.5373 25.8088 90.5373 21.2382ZM79.7389 21.2382C82.8987 21.2245 86.0723 21.2382 89.2321 21.2382C89.2321 22.2402 89.2321 23.2559 89.2184 24.2578C88.243 24.2578 87.2538 24.2578 86.2784 24.2578C86.2784 27.8265 86.2784 31.3951 86.2784 34.9637C85.0831 34.9637 83.8879 34.9774 82.6926 34.95C82.6926 31.3813 82.6926 27.8127 82.6926 24.2441C81.7035 24.2441 80.7281 24.2441 79.7389 24.2441C79.7389 23.2559 79.7389 22.2402 79.7389 21.2382ZM49.8442 21.2382C51.0395 21.2382 52.2347 21.2382 53.4299 21.2382C53.4299 23.1323 53.4162 25.0265 53.4299 26.9206C54.8725 25.0265 56.3287 23.1323 57.7713 21.2382C59.255 21.2382 60.7388 21.2245 62.2088 21.252C60.3678 23.4069 58.5681 25.5755 56.7409 27.7304C58.7192 30.1598 60.725 32.5617 62.7171 34.9774C61.2471 34.9774 59.7771 34.9774 58.3208 34.9774C58.1147 35.0323 57.9911 34.8676 57.8812 34.7304C56.4112 32.8088 54.9137 30.901 53.4299 28.9931C53.4299 30.9833 53.4299 32.9872 53.4299 34.9774C52.2347 34.9774 51.0395 34.9774 49.8442 34.9774C49.8442 30.3931 49.858 25.8088 49.8442 21.2382ZM31.8882 21.2382C33.0834 21.2382 34.2787 21.2382 35.4739 21.2382C35.4602 25.8225 35.4876 30.3931 35.4602 34.9774C34.2787 34.9637 33.0972 34.9637 31.9019 34.9774C31.8745 30.3931 31.8882 25.8225 31.8882 21.2382ZM17.614 21.2382C18.8093 21.2382 20.0045 21.2382 21.1997 21.2382C21.1997 23.5716 21.1997 25.8912 21.1997 28.2245C21.2135 29.1715 21.1723 30.1872 21.5844 31.0657C21.8592 31.6833 22.4912 32.1088 23.1643 32.1637C23.9062 32.2461 24.7717 32.1774 25.3213 31.601C25.9532 30.9284 26.0219 29.9402 26.0494 29.0617C26.0631 26.4539 26.0494 23.8598 26.0494 21.252C27.2446 21.2245 28.4399 21.252 29.6351 21.2382C29.6351 24.1206 29.6351 26.9892 29.6214 29.8715C29.6076 31.1892 29.3329 32.5755 28.4124 33.5774C27.4507 34.6755 25.9807 35.1421 24.5656 35.2931C23.027 35.4166 21.4058 35.2657 20.032 34.5245C19.0291 33.9892 18.2597 33.0421 17.9438 31.9578C17.669 31.0657 17.6278 30.1186 17.6278 29.1853C17.614 26.5225 17.614 23.8735 17.614 21.2382ZM71.4135 21.65C72.5675 20.8676 74.0375 20.7304 75.3839 20.95C76.4829 21.101 77.5408 21.4578 78.5299 21.9657C78.0903 22.9127 77.6095 23.8461 77.1011 24.752C76.428 24.2029 75.5624 23.8186 74.6832 23.8598C74.2023 23.8735 73.694 24.0657 73.3918 24.4637C73.0895 24.848 73.1857 25.4657 73.5841 25.7539C74.2161 26.248 75.0266 26.3578 75.7548 26.6049C76.8401 26.9343 77.9667 27.4284 78.5986 28.4304C79.313 29.597 79.1894 31.0931 78.8047 32.3559C78.3925 33.7147 77.1561 34.648 75.8372 35.046C73.5017 35.7598 70.8914 35.1696 68.9268 33.7833C69.4351 32.8362 69.9435 31.9029 70.438 30.9559C71.0425 31.3127 71.5646 31.8068 72.224 32.0402C73.0483 32.3696 74.0787 32.5068 74.8481 31.9715C75.3839 31.6147 75.5762 30.7774 75.1091 30.2833C74.5733 29.6931 73.749 29.5559 73.0209 29.3225C71.9905 29.0206 70.8502 28.6912 70.1358 27.8265C69.4626 26.9755 69.4077 25.8225 69.5038 24.7931C69.6687 23.5304 70.3419 22.3363 71.4135 21.65ZM38.4002 23.9559C39.8564 21.8696 42.4667 20.6618 44.9946 20.8814C45.9013 20.9637 46.8218 21.1833 47.6461 21.5676C47.6186 22.9814 47.6324 24.3951 47.6324 25.8088C46.4371 24.2304 43.9505 23.8049 42.3293 24.9853C40.3373 26.3853 40.2823 29.7892 42.3156 31.1892C43.9505 32.3421 46.3822 31.9166 47.6461 30.3931C47.6324 31.8206 47.6461 33.248 47.6461 34.6755C46.6569 34.9774 45.6403 35.3068 44.5962 35.3068C42.3431 35.3617 40.1175 34.3186 38.6612 32.6166C36.6417 30.2421 36.6142 26.4951 38.4002 23.9559ZM5.30446 25.7402C4.04054 27.2225 4.39773 29.6108 5.78531 30.901C6.74699 31.848 8.24447 32.2049 9.52214 31.7931C8.79401 31.0519 8.0384 30.3245 7.31027 29.5833C8.43681 29.4872 9.54962 29.2676 10.6624 29.199C11.0334 29.4598 11.3081 29.8441 11.6378 30.1598C12.9018 28.5265 12.2286 25.9872 10.5525 24.9029C8.93139 23.7363 6.4997 24.1755 5.30446 25.7402ZM3.58717 22.3637C5.37316 21.0186 7.72242 20.4971 9.90682 20.8951C11.8302 21.1971 13.6574 22.2402 14.7565 23.8598C15.9105 25.5069 16.2265 27.6343 15.883 29.597C15.6495 30.8461 15.0312 31.9853 14.2619 32.9735C15.045 33.7421 15.7731 34.5382 16.5699 35.2931C15.4846 35.499 14.3718 35.65 13.2727 35.8147C12.9018 35.3892 12.5446 34.95 12.1874 34.5245C10.7036 35.3755 8.91765 35.5264 7.24157 35.3343C5.29073 35.1009 3.42231 34.0853 2.24081 32.4931C1.11426 30.9696 0.660899 28.9931 0.839497 27.099C1.0181 25.2323 2.07595 23.4755 3.58717 22.3637Z" fill="#525C66"/>
<path d="M51.6994 6.5245L41.4368 17.7794L38.3044 14.952L48.5808 3.69705L51.6994 6.5245ZM68.5564 0.814697L71.675 3.64215L61.3987 14.8971L58.3075 12.0696L68.5564 0.814697ZM58.4587 2.42058L61.5635 5.26176L51.301 16.5167L48.1823 13.6892L58.4587 2.42058Z" fill="#525C66"/>
<path d="M59.271 11.7131C62.4033 8.32291 65.4807 4.87784 68.6131 1.48767C69.3962 2.22884 70.193 2.92884 70.9761 3.65628C67.8025 7.19743 64.574 10.7111 61.3592 14.2111C60.5761 13.5248 59.8205 12.7974 59.0237 12.1111C59.0787 11.9601 59.1474 11.8229 59.271 11.7131ZM48.8711 13.6621C52.0446 10.1209 55.2869 6.63469 58.4604 3.10727C59.2847 3.76608 60.0129 4.5347 60.8234 5.19352C60.796 5.26215 60.741 5.3994 60.7135 5.46803C57.5674 8.9131 54.4214 12.3582 51.2753 15.817C50.451 15.1307 49.6816 14.3758 48.8711 13.6621ZM38.9932 14.9248C42.2079 11.4111 45.409 7.89742 48.61 4.38372C49.4343 5.08372 50.2174 5.83861 51.028 6.55233C48.6925 9.1327 46.3295 11.6993 43.9939 14.2797C43.1009 15.213 42.2904 16.215 41.3699 17.0934C40.5868 16.3523 39.7625 15.6523 38.9932 14.9248ZM63.9283 28.0737C64.1756 27.4561 64.8076 26.9757 65.4945 27.0443C66.2226 26.9757 66.7859 27.5933 67.0607 28.211C67.0744 28.4992 67.0744 28.7874 67.0607 29.062C66.8408 29.5698 66.4699 30.0365 65.9204 30.1874C65.3021 30.2835 64.5603 30.1874 64.1893 29.6384C63.7909 29.2129 63.8459 28.5953 63.9283 28.0737Z" fill="#525C66"/>
</svg>
