<svg width="142" height="36" viewBox="0 0 142 36" fill="none" xmlns="http://www.w3.org/2000/svg">
<path fill-rule="evenodd" clip-rule="evenodd" d="M89.9642 7.77223C92.4833 3.42334 97.2253 -0.281275 102.189 0.926751C107.228 2.45692 109.895 9.06082 108.784 14.2956C108.043 17.8391 104.931 20.0136 101.967 21.0605C98.4848 22.3491 94.7061 21.7048 91.1497 21.0605C91.2238 24.2014 91.5201 27.3423 91.8906 30.4831C91.5942 33.3824 87.371 33.3018 87.2969 30.322C86.2596 22.8323 86.1855 14.4566 89.9642 7.77223ZM91.6683 16.0673C95.7434 17.0337 100.782 17.678 103.968 14.054C105.524 10.752 103.227 4.63138 99.2257 5.67834C94.9284 7.04743 92.6315 11.7184 91.6683 16.0673ZM11.4264 2.45694C13.2046 0.846235 16.0201 0.282471 18.0206 1.7321C21.503 4.14815 22.5403 8.8192 23.0589 12.9265C23.5776 18.1613 23.7257 23.4766 24.1703 28.7113C24.6149 31.2885 20.9102 32.4965 19.947 30.0804C19.0579 26.9396 19.2802 23.4766 18.9097 20.2552C15.2792 19.6914 11.5746 19.2887 7.9441 18.8861C6.83271 22.7517 6.0177 26.698 5.0545 30.5636C4.38767 33.2213 0.46078 32.2549 0.757149 29.5973C1.57216 24.9262 2.90582 20.4162 4.23948 15.8257C5.72133 10.9131 7.57364 5.83941 11.4264 2.45694ZM9.57413 14.215C12.6119 14.2956 15.7238 14.6177 18.6875 15.262C18.2429 11.799 17.8725 8.01384 15.3533 5.51726C12.3896 7.36956 10.7596 10.9131 9.57413 14.215ZM33.58 8.33598C34.9137 5.51726 36.766 2.37637 39.8038 1.57102C41.8043 1.08781 43.6566 2.53747 44.4716 4.47031C45.7311 7.36957 45.3607 10.7521 45.4348 13.8929C47.7316 11.8795 50.1026 9.3024 53.2145 9.14133C56.4745 8.98026 58.475 12.6044 58.7714 15.7452C59.29 20.6579 58.5491 25.651 59.2159 30.5636C59.8087 32.6575 57.4377 34.5099 55.7336 33.3018C54.1036 31.8522 54.6222 29.2751 54.3258 27.2617C53.9554 22.7518 55.215 18.0002 53.4367 13.8124C50.399 15.1815 48.3985 18.0002 46.1016 20.4162C44.6939 22.1075 41.8783 21.3021 41.4338 19.0471C40.3224 14.9398 41.1374 10.6715 40.5447 6.48369C38.2478 8.49706 37.1364 11.5574 36.0992 14.4566C34.5432 19.1277 33.3577 23.9598 32.8391 28.8724C32.8391 30.7247 30.6163 31.8522 29.2827 30.7247C27.8008 29.5972 28.3936 27.4228 28.5417 25.7315C29.6531 19.6109 31.135 13.7318 33.58 8.33598ZM117.156 4.06764C112.859 11.5574 111.229 20.3357 109.45 28.7919C109.302 30.0805 108.487 31.6911 109.673 32.7381C110.71 34.1877 113.229 33.5434 113.526 31.6911C115.526 22.9128 116.86 13.7318 121.453 6.08101C123.306 10.5104 122.935 15.4231 124.269 19.9331C124.639 22.027 127.381 23.0739 128.64 21.3827C130.567 18.8055 131.456 15.5036 133.827 13.2486C134.716 20.4162 134.197 28.067 137.531 34.5904C138.791 37.248 142.866 34.5904 141.384 32.0938C138.939 26.5369 139.087 20.2552 138.569 14.215C138.346 11.5574 137.087 7.85277 134.049 7.93331C131.085 8.09438 129.233 10.9936 127.751 13.4097C127.01 9.46346 126.788 4.79246 123.824 1.81267C121.602 -0.281245 118.416 1.65159 117.156 4.06764ZM70.1816 20.5773C68.8479 18.6445 71.0707 16.9532 72.4784 16.2284C73.4416 16.9532 75.2939 17.3559 75.0717 19.0471C75.2199 21.7048 71.3671 22.9934 70.1816 20.5773Z" fill="#535D69"/>
</svg>
