<?xml version="1.0" encoding="utf-8"?><svg xmlns="http://www.w3.org/2000/svg" xmlns:xlink="http://www.w3.org/1999/xlink"><symbol viewBox="0 0 142 36" id="am-pm" xmlns="http://www.w3.org/2000/svg"><path fill-rule="evenodd" clip-rule="evenodd" d="M89.964 7.772C92.484 3.423 97.225-.28 102.19.927c5.039 1.53 7.706 8.134 6.595 13.369-.741 3.543-3.853 5.718-6.817 6.765-3.482 1.288-7.26.644-10.817 0 .074 3.14.37 6.281.74 9.422-.296 2.9-4.519 2.819-4.593-.161-1.037-7.49-1.111-15.865 2.667-22.55zm1.704 8.295c4.075.967 9.114 1.611 12.3-2.013 1.556-3.302-.741-9.423-4.742-8.376-4.298 1.37-6.594 6.04-7.558 10.39zM11.426 2.457c1.779-1.61 4.594-2.175 6.595-.725 3.482 2.416 4.52 7.087 5.038 11.195.519 5.234.667 10.55 1.111 15.784.445 2.578-3.26 3.785-4.223 1.37-.89-3.141-.667-6.604-1.037-9.826-3.63-.564-7.335-.966-10.966-1.369-1.111 3.866-1.926 7.812-2.89 11.678-.666 2.657-4.593 1.69-4.297-.967.815-4.67 2.149-9.18 3.482-13.771 1.482-4.913 3.335-9.987 7.187-13.37zM9.574 14.215c3.038.08 6.15.403 9.114 1.047-.445-3.463-.816-7.248-3.335-9.745-2.963 1.853-4.593 5.396-5.779 8.698zM33.58 8.336c1.334-2.819 3.186-5.96 6.224-6.765 2-.483 3.853.966 4.668 2.9 1.26 2.899.889 6.281.963 9.422 2.297-2.014 4.668-4.59 7.78-4.752 3.26-.16 5.26 3.463 5.556 6.604.519 4.913-.222 9.906.445 14.819.593 2.093-1.778 3.946-3.482 2.738-1.63-1.45-1.112-4.027-1.408-6.04-.37-4.51.889-9.262-.89-13.45-3.037 1.37-5.038 4.188-7.334 6.604-1.408 1.692-4.224.886-4.668-1.369-1.112-4.107-.297-8.376-.89-12.563-2.296 2.013-3.408 5.073-4.445 7.973-1.556 4.67-2.741 9.503-3.26 14.415 0 1.853-2.223 2.98-3.556 1.853-1.482-1.128-.89-3.302-.741-4.994 1.111-6.12 2.593-12 5.038-17.395zm83.576-4.268c-4.297 7.49-5.927 16.268-7.706 24.724-.148 1.288-.963 2.9.223 3.946 1.037 1.45 3.556.805 3.853-1.047 2-8.778 3.334-17.96 7.927-25.61 1.853 4.43 1.482 9.342 2.816 13.852.37 2.094 3.112 3.14 4.371 1.45 1.927-2.578 2.816-5.88 5.187-8.134.889 7.167.37 14.818 3.704 21.341 1.26 2.658 5.335 0 3.853-2.496-2.445-5.557-2.297-11.839-2.815-17.879-.223-2.658-1.482-6.362-4.52-6.282-2.964.161-4.816 3.06-6.298 5.477-.741-3.947-.963-8.618-3.927-11.597-2.222-2.094-5.408-.161-6.668 2.255zm-46.974 16.51c-1.334-1.933.889-3.625 2.296-4.35.964.725 2.816 1.128 2.594 2.82.148 2.657-3.705 3.945-4.89 1.53z"/></symbol><symbol viewBox="0 0 145 36" id="cersanit" xmlns="http://www.w3.org/2000/svg"><path d="M127.391.872c.553-.199 1.185-.22 1.718.088 1.224.574 1.442 2.671.435 3.598-.909.75-2.39.663-3.081-.397-.672-1.126-.257-2.87.928-3.29zm6.853-.177h3.811c0 2.539-.02 5.077 0 7.616 2.034.022 4.068-.022 6.102.022-.02.971-.02 1.92 0 2.892h-6.102c.02 5.055 0 10.088 0 15.12.039 1.943.454 4.063 1.876 5.32 1.165 1.105 2.765 1.06 4.206 1.016v2.583c-1.619.397-3.317.53-4.976.22-1.659-.352-3.259-1.434-4.009-3.178-.751-1.788-.889-3.797-.928-5.74.02-8.608.02-17.24.02-25.87zM23.32 11.843c2.132-2.406 5.213-3.576 8.215-3.532 2.073.066 4.246.486 5.964 1.854 2.053 1.568 3.317 4.172 3.83 6.843.356 1.766.534 3.576.356 5.387-6.122-.023-12.244 0-18.385-.023.02 1.656-.02 3.378.592 4.923.889 2.693 3.08 4.591 5.49 5.364 3.14.994 6.458.618 9.617-.11 0 .706.06 1.457-.079 2.163-2.547.64-5.174.971-7.78.905-2.824-.154-5.727-1.06-7.9-3.157-2.172-2.075-3.337-5.231-3.534-8.366-.395-4.348.79-9.072 3.614-12.251zm1.955 1.324c-1.481 2.098-1.975 4.79-2.094 7.395 4.996-.066 10.012 0 15.009-.022.217-2.87-.237-6.026-2.074-8.19-2.883-3.288-8.373-2.913-10.841.817zM47.728 9.79c2.528-1.788 5.766-1.7 8.59-.993a50.8 50.8 0 000 2.45c-1.955-.199-4.147-.199-5.727 1.302-1.46 1.457-1.836 3.775-1.836 5.85 0 5.695.06 11.412.06 17.108-1.324.022-2.647.066-3.97.022-.02-6.512-.08-13.024-.04-19.558.099-2.384 1.047-4.879 2.923-6.181zm15.048-.795c2.844-1.037 6.023-.883 8.748.508-.02.596 0 1.192 0 1.788-2.093-.86-4.463-1.346-6.635-.508-.928.31-1.758 1.016-2.29 1.92-.968 1.656-.79 4.107.592 5.431 1.895 1.965 4.6 2.296 6.813 3.62 1.58.84 3.06 2.164 3.673 4.04.69 2.296.355 5.055-1.146 6.843-1.283 1.611-3.199 2.384-5.035 2.76a16.45 16.45 0 01-8.926-.817c.02-.773 0-1.546 0-2.296 2.37.794 4.838 1.545 7.346 1.17 1.52-.265 3.12-.994 3.89-2.56.75-1.678.612-3.864-.474-5.299-1.244-1.523-3.06-2.185-4.76-2.847-2.073-.817-4.225-1.92-5.509-3.996-.987-1.611-.908-3.708-.336-5.474.593-2.075 2.232-3.598 4.049-4.283zm46.585-.309c2.409-.375 4.937-.706 7.287.243 1.995.729 3.594 2.56 4.364 4.724.553 1.59.81 3.29.869 4.967v16.865c-1.264.022-2.508 0-3.772 0V20.364c0-2.031-.375-4.106-1.382-5.85-1.165-2.23-3.475-3.598-5.786-3.51-2.232 0-4.542.729-6.161 2.517-.139 7.306-.06 14.635-.079 21.942-1.264.022-2.548 0-3.812.022V15.927c-.019-1.325.04-2.65-.059-3.952a3.867 3.867 0 01.059-1.17c2.824-.706 5.589-1.677 8.472-2.119zm16.825-.375h3.989v27.174c-1.342 0-2.666.022-4.008-.022.059-9.029 0-18.102.019-27.152zM8.844 9.15a16.734 16.734 0 018.788-.31c.02.818.02 1.634 0 2.473-2.528-.618-5.253-.662-7.682.442-2.962 1.302-5.095 4.503-5.549 7.99-.355 2.65-.118 5.497 1.047 7.881 1.145 2.45 3.258 4.26 5.628 4.967 2.133.64 4.404.552 6.536 0 .06.795.04 1.611.02 2.428-3.772.993-7.919 1.038-11.473-.883-2.568-1.346-4.542-3.951-5.392-6.975-1.263-4.57-.77-9.956 2.054-13.687 1.54-2.097 3.733-3.51 6.023-4.326zm71.211.397c3.397-1.17 7.07-1.655 10.565-.772 1.975.463 3.871 1.743 4.878 3.73.928 1.766 1.205 3.863 1.264 5.894v17.108c-3.1-.022-6.22.044-9.321-.022-2.725-.199-5.628-.663-7.9-2.517-2.902-2.296-3.396-7.594-.848-10.419 1.737-1.876 4.166-2.627 6.477-3.09 2.567-.398 5.154-.619 7.741-.398-.02-1.545.217-3.156-.336-4.613-.572-1.678-1.836-2.98-3.337-3.554-2.982-1.126-6.24-.596-9.163.507-.02-.618-.02-1.236-.02-1.854zm4.226 12.141c-1.738.795-3.278 2.428-3.673 4.547-.217 1.59-.118 3.334.73 4.658.89 1.457 2.39 2.252 3.872 2.65 2.508.617 5.114.64 7.681.573V20.452c-2.883-.044-5.885 0-8.61 1.236z"/></symbol><symbol viewBox="0 0 14 14" id="feedback" xmlns="http://www.w3.org/2000/svg"><path d="M11.357 10.118a6.79 6.79 0 01-.918.5c-.599 2.093-2.532 3.309-2.532 3.309.806-.963.588-1.94.117-2.72-1.234.066-2.404-.235-3.27-.885.03-.02.061-.038.091-.06.425.061.864.094 1.313.094 3.689 0 6.678-2.139 6.678-4.778 0-.793-.275-1.54-.752-2.197.343.201.653.446.91.741 1.526 1.737.792 4.421-1.637 5.996zm-11.136.416s2.52.032 4.564-1.4c.37.052.75.081 1.14.081 3.2 0 5.793-1.855 5.793-4.144S9.125.927 5.925.927.13 2.78.13 5.07c0 1.314.858 2.483 2.193 3.243-.179.91-.716 1.85-2.103 2.22z"/></symbol><symbol viewBox="0 0 157 36" id="hansgrohe" xmlns="http://www.w3.org/2000/svg"><path d="M.783.7C2.074.7 3.366.686 4.657.705l.013.229v11.985c.005.27-.018.546.02.816a1.13 1.13 0 00.055-.08c.368-.307.746-.615 1.18-.834a6.59 6.59 0 015.354-.396 5.614 5.614 0 012.252 1.562c.838.938 1.337 2.14 1.547 3.372.042.228.032.462.032.69v8.064c.005.979-.018 1.963-.009 2.942-.005.08.023.215-.098.21-1.132.005-2.265 0-3.393.005-.102 0-.205-.005-.303-.014.019-1.124-.014-2.248.024-3.372v-6.716c-.024-1.151-.77-2.229-1.8-2.718-.834-.41-1.85-.476-2.717-.126-1.174.461-2.004 1.641-2.116 2.886-.004 3.311 0 6.627-.004 9.939.018.079-.042.13-.117.111-1.263.005-2.526.005-3.789 0-.018-2.55-.01-5.106-.014-7.662V1.451C.78 1.2.77.948.784.701zm121.854.01c1.296.004 2.596-.014 3.892.009.004 3.894 0 7.793 0 11.687.009.42-.024.844.014 1.269a6.242 6.242 0 012.12-1.292 6.723 6.723 0 013.654-.233 5.855 5.855 0 012.233 1.016 6.064 6.064 0 011.673 2.01c.396.751.634 1.577.746 2.416 0 1.12.009 2.234-.01 3.353v4.43c-.009 1.288.024 2.57-.032 3.858-1.254.004-2.508.004-3.757 0-.023-1.33.01-2.663 0-3.997.005-1.973-.009-3.95.01-5.923.009-.448-.07-.9-.257-1.306-.321-.76-.969-1.352-1.72-1.674-.871-.364-1.901-.373-2.754.047-1.063.517-1.79 1.627-1.911 2.793-.028 3.349.005 6.702-.028 10.05-1.291.019-2.582.005-3.873.005-.033-.504 0-1.012-.014-1.52V3.363c.009-.886-.005-1.772.014-2.653zm-79.24 13.007a6.437 6.437 0 014.147-1.642 6.526 6.526 0 013.715.998c1.314.835 2.32 2.164 2.698 3.68.22.77.177 1.58.182 2.373.019 1.106.01 2.206.01 3.312-.005 2.275.018 4.556.004 6.832-1.277.005-2.559 0-3.836 0-.018-3.32 0-6.641-.01-9.957-.004-.951-.521-1.856-1.276-2.416-1.067-.82-2.61-.937-3.803-.322-.802.402-1.445 1.134-1.683 2.006-.149.494-.107 1.016-.116 1.53-.005 1.898.01 3.791-.01 5.69-.004 1.146.01 2.294-.004 3.44l-.023.029c-1.296.014-2.587 0-3.883.005-.023-.817-.005-1.633-.01-2.454.005-2.504-.009-5.004.01-7.508 0-2.295-.005-4.59.005-6.884h.773c.956.047 1.911.005 2.871.024.01.485-.004.965.01 1.45.088-.028.154-.117.228-.186zm35.593-1.32a7.614 7.614 0 013.719-.191 6.408 6.408 0 013.49 1.86c0-.54-.008-1.082.005-1.623 1.18.014 2.364 0 3.543.01.014 5.116-.014 10.232-.005 15.343-.005.513-.023 1.035-.159 1.535-.228.923-.69 1.772-1.249 2.537a10.105 10.105 0 01-4.078 3.18c-1.1.457-2.297.709-3.486.634-2.032-.084-4.06-.849-5.57-2.224a7.361 7.361 0 01-2.064-3.078c1.356 0 2.717-.014 4.073-.01a5.23 5.23 0 002.028 1.418c.97.369 2.05.448 3.057.196 1.664-.396 3.076-1.688 3.63-3.307.239-.638.322-1.324.304-2-.904.98-2.004 1.805-3.277 2.238-1.011.364-2.116.364-3.164.187-1.79-.308-3.454-1.264-4.656-2.621a8.55 8.55 0 01-1.454-2.28c-.83-1.89-.984-4.086-.345-6.054.843-2.658 2.978-4.92 5.658-5.75zm2.018 3.642c-1.235.112-2.396.774-3.155 1.754a4.776 4.776 0 00-1.007 3.059c-.01 1.805 1.123 3.549 2.773 4.276.918.41 1.985.504 2.96.234.783-.196 1.496-.63 2.064-1.199a4.809 4.809 0 001.3-2.472c.196-1.035.061-2.14-.424-3.078a4.654 4.654 0 00-1.808-1.963 4.454 4.454 0 00-2.703-.61zm18.34-3.521a6.49 6.49 0 012.488-.457c.01.802-.004 1.604 0 2.402-.009.443.019.886-.009 1.329-.993.033-1.995.336-2.787.951-.61.471-1.081 1.18-1.128 1.964-.01 2.457.01 4.91-.01 7.368-.004 1.04.005 2.08-.004 3.116.01.088-.102.07-.158.074h-3.733c-.08.019-.136-.037-.112-.112V13.945c.004-.499-.01-.998.004-1.502 1.221.01 2.447.01 3.668 0 .014.467-.014.933.01 1.4.424-.625 1.09-1.031 1.77-1.325zm11.092-.406c1.398-.102 2.824.136 4.097.737 2.027.933 3.63 2.705 4.413 4.79.942 2.471.737 5.363-.596 7.657-1.1 1.94-2.983 3.438-5.141 4.006-1.636.434-3.407.364-4.991-.233a8.42 8.42 0 01-3.454-2.425 8.804 8.804 0 01-1.943-3.973 9.073 9.073 0 01.54-5.387 8.736 8.736 0 012.974-3.684 8.244 8.244 0 014.101-1.488zm.145 3.927c-1.548.15-2.927 1.199-3.608 2.58a5.039 5.039 0 00.089 4.607 4.73 4.73 0 001.505 1.66 4.446 4.446 0 002.219.765 4.459 4.459 0 001.985-.345c1.137-.476 2.046-1.446 2.508-2.584.535-1.31.48-2.85-.154-4.118a4.712 4.712 0 00-2.177-2.164 4.404 4.404 0 00-2.367-.4zm35.076-3.39c2.013-.812 4.358-.737 6.32.177 1.598.737 2.931 2 3.798 3.526a9.138 9.138 0 011.175 4.355c.004.555.028 1.115-.052 1.67-2.414.014-4.833 0-7.247.005-1.738 0-3.477.004-5.22-.005-.084 0-.168-.005-.247 0-.056.042-.009.126 0 .187a4.358 4.358 0 001.529 2.229c.82.648 1.873.988 2.922.97a4.606 4.606 0 003.607-1.772c.443-.038.891-.01 1.333-.02.937.006 1.869-.008 2.806.006-.023.219-.14.415-.224.615-.964 2.173-2.866 3.941-5.154 4.631-.942.313-1.944.401-2.927.345-2.046-.116-4.004-1.086-5.407-2.574a8.92 8.92 0 01-2.283-4.668c-.359-2.169.079-4.473 1.263-6.329.941-1.492 2.353-2.705 4.008-3.348zm-1.259 6.17c2.853.014 5.705 0 8.557-.01-.093-.378-.288-.723-.508-1.04-.848-1.222-2.349-1.926-3.821-1.888-1.827-.014-3.626 1.193-4.228 2.938zM22.19 13.669c1.407-.992 3.123-1.57 4.852-1.543a6.043 6.043 0 011.91.28c1.04.35 1.925 1.03 2.727 1.763.07-.574.019-1.161.038-1.74 1.263-.004 2.53 0 3.793 0 .028.723.005 1.446.01 2.174v8.72c-.005 1.983.009 3.97-.01 5.951-.466.02-.932-.009-1.398-.004-.354-.005-.708.005-1.063-.005-.452-.037-.904 0-1.356-.023-.019-.532.01-1.068-.019-1.6-.685.602-1.412 1.175-2.26 1.525-.913.387-1.92.48-2.899.425-1.701-.089-3.356-.747-4.693-1.796a8.834 8.834 0 01-3.072-4.663 8.885 8.885 0 01.257-5.326 8.876 8.876 0 013.183-4.137zm4.26 2.403c-1.58.2-2.978 1.31-3.612 2.76-.727 1.605-.508 3.592.573 4.986.886 1.19 2.372 1.907 3.86 1.828a4.567 4.567 0 002.726-1.091c1.207-1.017 1.85-2.654 1.668-4.22-.14-1.568-1.104-3.037-2.498-3.769a4.5 4.5 0 00-2.717-.494zm33.235-2.994c.956-.555 2.05-.84 3.15-.9 1.916-.14 3.907.443 5.37 1.711 1.03.89 1.79 2.136 1.976 3.498-1.421.01-2.838-.005-4.26-.005-.032-.415-.28-.77-.578-1.045-.624-.56-1.477-.886-2.32-.82-.476.032-.956.135-1.376.378-.386.195-.727.545-.806.988-.051.373.112.76.387 1.008.35.293.788.466 1.226.573.368.107.75.135 1.118.229.676.149 1.352.28 2.028.429.83.154 1.663.354 2.414.746.806.401 1.538 1.007 1.971 1.81.513.923.61 2.033.443 3.063a5.566 5.566 0 01-1.118 2.57 5.945 5.945 0 01-2.014 1.628c-.909.457-1.92.7-2.936.741-.452-.004-.904.028-1.352-.046-1.934-.229-3.822-1.157-5.057-2.687-.592-.75-1.03-1.641-1.16-2.593a6.28 6.28 0 01-.056-.657c.256-.023.517.014.774.01h3.309a2.14 2.14 0 00.601 1.412c.536.597 1.319.914 2.102 1.012.545.038 1.1.019 1.626-.149.415-.121.816-.34 1.096-.676a1.58 1.58 0 00.33-1.31c-.055-.197-.14-.388-.293-.523-.34-.345-.81-.508-1.263-.634-.643-.192-1.31-.257-1.962-.383-.9-.168-1.79-.382-2.638-.727-.89-.355-1.748-.84-2.424-1.53-.582-.592-.978-1.394-.997-2.234-.051-1.063.205-2.15.774-3.05a5.244 5.244 0 011.915-1.837z"/></symbol><symbol viewBox="0 0 10 14" id="location" xmlns="http://www.w3.org/2000/svg"><path d="M7.903 1.386A4.523 4.523 0 004.683.053a4.52 4.52 0 00-3.218 1.333c-1.592 1.591-1.79 4.585-.429 6.399l3.648 5.268 3.642-5.26c1.366-1.822 1.169-4.816-.423-6.407zm-3.177 4.84a1.664 1.664 0 01-1.662-1.662c0-.917.746-1.662 1.662-1.662.916 0 1.662.745 1.662 1.662 0 .916-.746 1.661-1.662 1.661z"/></symbol><symbol viewBox="0 0 8 14" id="phone" xmlns="http://www.w3.org/2000/svg"><path d="M7.745 2.45V.843H.027v13h7.717V5.298h.246v-1.29h-.246v-.269h.246V2.45h-.245zm-4.48-.92h1.242v.389H3.264V1.53zm.62 11.9a.518.518 0 11.001-1.037.518.518 0 010 1.037zm3.109-1.399H.778V2.657h6.216v9.374z"/></symbol><symbol viewBox="0 0 118 36" id="quick-step" xmlns="http://www.w3.org/2000/svg"><path d="M115.184 22.281v.426c.247 0 .508-.014.755-.041 0-.069.014-.22.014-.289-.233-.082-.508-.096-.769-.096zm-.344-.288c.454.041.976-.123 1.374.151.22.33.083.837-.357.865.137.22.261.439.398.672-.109 0-.329-.013-.439-.013-.165-.261-.206-.741-.618-.7v.727h-.358a37.142 37.142 0 010-1.702zm.275-.33c-1.03.234-1.195 1.813-.275 2.293.784.508 1.979-.137 1.883-1.084.068-.838-.852-1.483-1.608-1.208zm-.123-.37c1.016-.343 2.17.508 2.115 1.579.055 1.029-1.03 1.866-2.019 1.592-1.017-.192-1.58-1.469-1.072-2.361.206-.398.563-.686.976-.81zm-10.854 2.828c.014 1.139-.014 2.278.014 3.43.811-.026 1.676.056 2.445-.26.674-.316.797-1.153.701-1.812-.041-.535-.371-1.056-.907-1.207-.728-.206-1.497-.165-2.253-.151zm-3.572-2.883h5.715c1.264.014 2.611.343 3.559 1.236.851.796 1.209 2.003 1.209 3.143.027 1.207-.193 2.525-1.031 3.445-.769.878-1.951 1.235-3.077 1.317-.934.055-1.855 0-2.789.028v4.557h-3.572c-.014-4.57 0-9.155-.014-13.726zm-10.029 0h7.845v3.02h-4.259v2.278h4.025v3.02c-1.346.014-2.692-.014-4.039.014.014.796-.013 1.592.014 2.374 1.415-.014 2.83-.014 4.245-.014v3.02h-7.83V21.238zm-10.798 0c3.16-.014 6.333 0 9.493 0 0 1.002 0 2.018-.014 3.02h-2.94v10.706c-1.195 0-2.39.013-3.585-.014V24.244h-2.954v-3.006zm-29.895 0h3.586c0 1.894-.014 3.788 0 5.683 1.443-1.895 2.899-3.789 4.341-5.683 1.484 0 2.968-.014 4.438.014-1.841 2.155-3.64 4.324-5.468 6.478 1.978 2.43 3.984 4.832 5.976 7.247h-4.396c-.206.055-.33-.11-.44-.247-1.47-1.921-2.967-3.829-4.451-5.737v5.984h-3.586c0-4.584.014-9.168 0-13.739zm-17.956 0h3.586c-.014 4.585.014 9.155-.014 13.74a154.037 154.037 0 00-3.558 0c-.027-4.585-.014-9.155-.014-13.74zm-14.274 0H21.2v6.986c.014.948-.028 1.963.384 2.842.275.617.907 1.043 1.58 1.098.742.082 1.608.013 2.157-.563.632-.673.7-1.66.728-2.54.014-2.607 0-5.201 0-7.809 1.196-.027 2.39 0 3.586-.014 0 2.883 0 5.751-.014 8.634-.013 1.317-.288 2.703-1.209 3.705-.961 1.099-2.431 1.565-3.846 1.716-1.539.124-3.16-.027-4.534-.768a4.315 4.315 0 01-2.088-2.567c-.275-.892-.316-1.84-.316-2.773-.014-2.662-.014-5.311-.014-7.947zm53.8.412c1.153-.782 2.623-.92 3.97-.7a9.826 9.826 0 013.146 1.016c-.44.947-.92 1.88-1.429 2.786-.673-.55-1.539-.933-2.418-.892-.48.014-.989.206-1.291.604-.302.384-.206 1.002.192 1.29.632.494 1.443.604 2.17.85 1.086.33 2.213.824 2.845 1.826.714 1.167.59 2.663.206 3.926-.413 1.359-1.649 2.292-2.968 2.69-2.335.714-4.946.124-6.91-1.263.508-.947 1.016-1.88 1.511-2.827.605.357 1.127.85 1.786 1.084.824.33 1.855.467 2.624-.069.536-.356.728-1.194.261-1.688-.536-.59-1.36-.727-2.088-.96-1.03-.302-2.17-.632-2.885-1.497-.673-.85-.728-2.003-.632-3.033.165-1.263.838-2.457 1.91-3.143zM38.4 23.956c1.456-2.086 4.067-3.294 6.595-3.075.906.083 1.827.302 2.651.687-.027 1.413-.014 2.827-.014 4.24-1.195-1.578-3.681-2.003-5.303-.823-1.992 1.4-2.047 4.804-.013 6.204 1.634 1.153 4.066.728 5.33-.796-.014 1.428 0 2.855 0 4.282-.99.302-2.006.632-3.05.632-2.253.055-4.478-.988-5.935-2.69-2.02-2.375-2.047-6.122-.26-8.661zM5.304 25.74c-1.263 1.483-.906 3.87.481 5.161.962.947 2.46 1.304 3.737.892-.728-.741-1.484-1.468-2.212-2.21 1.127-.096 2.24-.315 3.352-.384.371.26.646.645.976.96 1.264-1.633.59-4.172-1.085-5.256-1.622-1.167-4.053-.727-5.249.837zm-1.717-3.376c1.786-1.345 4.135-1.867 6.32-1.469 1.923.302 3.75 1.345 4.85 2.965 1.154 1.647 1.47 3.774 1.126 5.737-.233 1.25-.852 2.388-1.621 3.377.783.768 1.511 1.564 2.308 2.32-1.085.205-2.198.356-3.297.52-.371-.425-.728-.864-1.086-1.29-1.483.852-3.27 1.002-4.945.81-1.951-.233-3.82-1.249-5.001-2.84-1.127-1.524-1.58-3.5-1.402-5.395.18-1.867 1.237-3.623 2.748-4.735zM51.7 6.524L41.436 17.78l-3.133-2.827L48.581 3.697l3.118 2.827zM68.555.814l3.119 2.828-10.276 11.255-3.092-2.827L68.558.815zM58.46 2.422l3.104 2.84-10.262 11.256-3.119-2.828L58.46 2.421z"/><path d="M59.271 11.713c3.132-3.39 6.21-6.835 9.342-10.225.783.74 1.58 1.44 2.363 2.168-3.174 3.541-6.402 7.055-9.617 10.555-.783-.686-1.538-1.414-2.335-2.1a.93.93 0 01.247-.398zm-10.4 1.95c3.174-3.542 6.416-7.028 9.59-10.556.824.66 1.552 1.428 2.362 2.087l-.11.274c-3.146 3.445-6.292 6.89-9.438 10.349-.824-.686-1.593-1.441-2.404-2.155zm-9.878 1.262c3.215-3.514 6.416-7.028 9.617-10.541.824.7 1.607 1.455 2.418 2.168-2.335 2.58-4.698 5.147-7.034 7.728-.893.933-1.704 1.935-2.624 2.813-.783-.74-1.607-1.44-2.377-2.168zm24.935 13.149c.248-.618.88-1.098 1.567-1.03.728-.068 1.29.55 1.566 1.167.013.288.013.576 0 .851-.22.508-.591.974-1.14 1.125-.619.096-1.36 0-1.732-.549-.398-.425-.343-1.043-.26-1.564z"/></symbol><symbol viewBox="0 0 83 36" id="roca" xmlns="http://www.w3.org/2000/svg"><path fill-rule="evenodd" clip-rule="evenodd" d="M.923 21.885C.94 14.828.923 7.755.94.699 5.388.769 9.853.575 14.3.84c1.982.248 4.232.514 5.607 2.11 1.93 2.003 1.715 5.389-.071 7.428-.786.975-1.929 1.595-3.09 2.02a722.476 722.476 0 005.448 9.503c-2.465-.035-4.93 0-7.395-.017-1.125-2.252-2.375-4.433-3.536-6.649-.321-.62-.625-1.24-1.036-1.808-.946.23-1.91.106-2.875.16-.018 2.765 0 5.53 0 8.297-2.144 0-4.287-.018-6.43 0zm6.43-18.19c0 2.322-.018 4.645 0 6.95 1.982-.018 4.09-.16 5.822-1.241a3.433 3.433 0 001.59-2.128c.357-1.135-.197-2.411-1.161-3.05-.59-.407-1.322-.478-2.018-.531-1.411 0-2.822.018-4.233 0zM31.857 6.39c2.233-.195 4.5-.089 6.68.478 1.947.514 3.626 1.933 4.394 3.777.678 1.63.75 3.457.553 5.176-.196 1.844-1.09 3.635-2.607 4.752-1.43 1.117-3.287 1.436-5.037 1.648-2.322.195-4.697.09-6.93-.567-2.054-.62-3.715-2.287-4.358-4.326-.464-1.578-.518-3.262-.268-4.875.25-1.88 1.322-3.67 2.93-4.698 1.375-.922 3.053-1.153 4.643-1.365zm.715 2.624c-1.054.23-1.947 1.152-2.09 2.216a21.268 21.268 0 00-.018 6.116c.16 1.152 1.143 2.145 2.304 2.323 1.322.248 2.965.16 3.894-.94.768-.869.678-2.092.785-3.174.161-1.33 0-2.659-.125-3.989-.053-.975-.66-1.914-1.553-2.34-1-.443-2.162-.532-3.197-.212zm18.985-1.915c3.394-1.241 7.198-.94 10.61.088-.287.905-.68 1.791-.93 2.713-1.196-.106-2.357-.461-3.554-.426-1.178-.07-2.429.125-3.375.851-1.036.851-1.233 2.27-1.233 3.529 0 1.311-.071 2.747.733 3.864.589.851 1.625 1.26 2.625 1.383 1.608.124 3.197-.07 4.769-.425.321.922.678 1.826.964 2.765-3.411 1.029-7.197 1.33-10.591.089-1.983-.691-3.59-2.322-4.215-4.308-.5-1.667-.536-3.457-.179-5.16.447-2.268 2.162-4.2 4.376-4.963zm15.396.07c3.036-.69 6.18-1.01 9.305-.815 1.429.177 2.965.372 4.162 1.241 1.053.78 1.84 1.95 2.053 3.262.197.869.143 1.773.143 2.66v7.712c-3.572 1.01-7.34 1.312-11.037.975a12.757 12.757 0 01-3.983-.993 4.127 4.127 0 01-2.233-2.216c-.732-1.667-.16-3.794 1.34-4.858 1.036-.727 2.286-1.081 3.5-1.347 2.09-.461 4.233-.408 6.34-.514-.035-.922.25-2.146-.75-2.695-1.035-.443-2.196-.39-3.303-.372-1.572.035-3.126.319-4.644.691-.25-.94-.661-1.808-.893-2.73zm4.822 8.103c-1.304.798-1.554 2.89-.286 3.847 1.465.993 3.34.762 5.02.638.053-1.773.017-3.546.017-5.319-1.59.071-3.304 0-4.75.834zM.941 27.452c11.359-2.73 23.361-2.713 34.703.106a70.25 70.25 0 0011.841 1.649c1.429-.018 2.858.177 4.287.124 1.464-.107 2.929-.16 4.357-.444.804-.124 1.572-.39 2.394-.425-.143.408-.554.585-.875.816a127.424 127.424 0 01-8.502 5.407c-.607.337-1.179.744-1.84 1.01-3.59-.16-7.18-.691-10.698-1.436-2.215-.532-4.465-1.028-6.715-1.365-6.162-1.046-12.45-1.134-18.665-.603-3.465.373-6.912.94-10.305 1.773.036-2.198 0-4.414.018-6.613zm62.725-.213c.25-.39.661-.71 1.144-.674h17.824a486.83 486.83 0 000 7.251c-7.715-.018-15.431.018-23.129-.018 1.429-2.145 2.768-4.379 4.161-6.56z"/></symbol><symbol viewBox="0 0 160 36" id="tarkett" xmlns="http://www.w3.org/2000/svg"><path fill-rule="evenodd" clip-rule="evenodd" d="M18.296.695C8.692.695.877 8.547.877 18.195c0 9.649 7.815 17.5 17.419 17.5 9.603 0 17.418-7.851 17.418-17.5-.031-9.648-7.846-17.5-17.418-17.5zm0 33.487c-1.915 0-3.735-.347-5.43-.946-2.7-1.167-5.179-3.469-6.183-5.424-1.224-2.49-1.946-5.234-1.695-8.608.66-9.9 12.303-12.518 16.54-6.937 4.143 5.487-2.699 9.617-2.856 7.19-.376-5.928-5.21-3.847-5.367-.284-.533 10.689 17.2 9.428 17.388-2.554.125-7.063-4.708-11.54-7.156-13.527 6.214 2.175 10.67 8.135 10.67 15.103 0 8.798-7.155 15.987-15.911 15.987zM39.512 6.119h20.274v6.117h-6.245v18.667h-7.784V12.236h-6.245V6.119z"/><path fill-rule="evenodd" clip-rule="evenodd" d="M66.91 23.146c-.595.126-1.223.284-1.85.504-1.382.568-1.476 1.388-1.476 1.608 0 .505.408 1.388 1.79 1.388 1.003 0 2.698-.663 3.326-2.081.345-.757.345-1.514.345-2.145-.722.253-1.412.505-2.134.726zm-9.352-4.95c.283-1.546.66-3.47 3.264-4.825 2.009-1.04 4.614-1.23 6.497-1.23 8.6 0 8.6 4.446 8.6 6.622v9.9c0 1.199.094 1.514.627 2.24h-7.093v-1.388c-.91.63-2.574 1.829-5.963 1.829-4.55 0-6.528-2.775-6.528-5.865 0-1.072.251-2.586 1.538-3.878 1.632-1.671 3.578-1.955 6.779-2.397 1.977-.284 2.762-.441 3.829-.756-.032-1.23-.377-2.082-2.448-2.082-1.632 0-2.103.41-2.354 1.672l-6.748.157zm26.991-3.88c1.946-1.765 3.296-1.954 6.026-1.954v6.117c-.47-.031-.973-.063-1.475-.063-4.237 0-4.3 2.775-4.331 3.973v8.545h-7.156v-18.32h6.905v1.703h.031zm7.91-8.166h7.218v11.793l4.896-5.171h8.788l-6.874 6.527 7.187 11.603h-8.191l-3.955-6.905-1.883 1.829v5.076h-7.187V6.15z"/><path fill-rule="evenodd" clip-rule="evenodd" d="M125.381 19.299c-.031-.284-.031-.568-.094-.851-.314-1.293-1.444-1.86-2.417-1.86-2.165 0-2.542 1.891-2.73 2.71h5.241zm6.967 7.347c-2.134 3.247-5.272 4.982-9.603 4.982-6.685 0-9.981-4.825-9.981-9.901 0-5.928 4.08-9.744 9.949-9.744 2.197 0 5.053.568 7.25 2.712 2.668 2.617 2.699 5.644 2.762 8.42h-12.648c.031.819.063 1.765.879 2.553.157.19.847.852 2.165.852 1.632 0 2.542-.883 3.296-2.365l5.931 2.49zm16.32-9.586l.032 8.798c0 .914 0 2.522 1.224 3.752 1.444 1.482 3.986 1.513 4.739 1.513 1.506 0 2.919-.189 4.551-.378v-4.95c-.408.063-.879.126-1.287.126-1.915 0-1.946-1.198-1.946-1.892l-.031-6.937h3.232V13.15h-3.107l-.031-5.708h-7.219v5.707h-5.869V7.443h-7.25l.032 5.707h-2.511v3.942h2.354v8.797c0 .915 0 2.523 1.224 3.752 1.444 1.482 3.986 1.514 4.739 1.514 1.507 0 2.919-.19 4.551-.379v-4.981c-.408.063-.879.126-1.287.126-1.914 0-1.946-1.198-1.946-1.892l.063-7 5.743.031z"/></symbol><symbol viewBox="0 0 19 18" id="thumb-up" xmlns="http://www.w3.org/2000/svg"><path d="M15.671 5.905h-3.626V3.418c0-1.193-.356-2.06-1.06-2.573C9.878.032 8.372.489 8.307.51a.618.618 0 00-.431.59v3c0 2.221-2.613 2.994-2.725 3.023-.007.003-.014.003-.018.007l-.298.093a1.865 1.865 0 00-1.287-.514H2.416A1.872 1.872 0 00.54 8.583v6.455c0 1.035.841 1.876 1.876 1.876h1.132c.478 0 .917-.18 1.247-.478a2.585 2.585 0 001.98.927h7.347c1.704 0 2.836-.934 3.034-2.498l.913-5.732.05-.31a2.49 2.49 0 00-2.448-2.918zm-11.48 9.136a.643.643 0 01-.643.644H2.416a.643.643 0 01-.643-.644V8.583c0-.356.287-.644.643-.644h1.132c.356 0 .644.288.644.644v6.458zm12.71-6.408l-.964 6.053-.003.021c-.043.352-.173 1.427-1.812 1.427H6.776a1.354 1.354 0 01-1.352-1.351v-6.2a1.88 1.88 0 00-.018-.248l.09-.029c.263-.075 3.612-1.103 3.612-4.209v-2.49c.356-.036.823-.011 1.15.233.367.273.554.802.554 1.578v3.105c0 .342.277.619.618.619h4.241c.69 0 1.248.56 1.248 1.247 0 .079-.008.162-.018.244z"/></symbol><symbol viewBox="0 0 14 14" id="time" xmlns="http://www.w3.org/2000/svg"><path d="M6.52.939a6.495 6.495 0 00-6.498 6.5c0 3.591 2.906 6.5 6.497 6.5a6.5 6.5 0 100-13zm.002 11.7a5.199 5.199 0 01-5.2-5.2c0-2.873 2.327-5.2 5.2-5.2s5.2 2.327 5.2 5.2-2.327 5.2-5.2 5.2z"/><path d="M6.847 7.601V4.19h-.975v3.9l3.41 2.047.49-.799-2.925-1.736z"/></symbol><symbol viewBox="0 0 34 18" id="view" xmlns="http://www.w3.org/2000/svg"><path d="M1.032 8.518c.26-.334 6.5-8.155 16.364-8.155 8.464 0 16.006 7.777 16.323 8.108a.556.556 0 010 .784c-.317.332-7.86 8.108-16.323 8.108-8.464 0-16.006-7.776-16.324-8.108a.553.553 0 01-.04-.737zm16.364 7.631c6.785 0 13.236-5.72 14.875-7.286-1.636-1.567-8.08-7.285-14.875-7.285-7.94 0-13.543 5.71-14.912 7.253 1.58 1.516 8.069 7.318 14.912 7.318z"/><path d="M17.396 4.007c3.03 0 5.495 2.178 5.495 4.857 0 2.679-2.465 4.857-5.495 4.857-3.03 0-5.496-2.178-5.496-4.857 0-2.679 2.465-4.857 5.496-4.857zm0 8.5c2.272 0 4.121-1.635 4.121-3.643 0-2.009-1.85-3.643-4.121-3.643-2.273 0-4.122 1.634-4.122 3.643 0 2.008 1.85 3.643 4.122 3.643z"/></symbol></svg>