<svg width="83" height="36" viewBox="0 0 83 36" fill="none" xmlns="http://www.w3.org/2000/svg">
<path fill-rule="evenodd" clip-rule="evenodd" d="M0.922852 21.8846C0.940712 14.8285 0.922852 7.75477 0.940712 0.698717C5.38796 0.769633 9.85306 0.574616 14.3003 0.840548C16.2828 1.08875 18.5332 1.35468 19.9085 2.95027C21.8374 4.95362 21.6231 8.33982 19.837 10.3786C19.0512 11.3537 17.9081 11.9742 16.7472 12.3997C18.5332 15.5732 20.355 18.7466 22.1946 21.9023C19.7299 21.8669 17.2651 21.9023 14.8004 21.8846C13.6752 19.633 12.425 17.4524 11.264 15.2363C10.9425 14.6158 10.6389 13.9953 10.2281 13.428C9.28153 13.6584 8.31707 13.5343 7.3526 13.5875C7.33474 16.3532 7.3526 19.1189 7.3526 21.8846C5.20935 21.8846 3.0661 21.8669 0.922852 21.8846ZM7.3526 3.69488C7.3526 6.01735 7.33474 8.33982 7.3526 10.6446C9.33511 10.6268 11.4426 10.485 13.1751 9.40354C13.961 8.9426 14.5504 8.16253 14.7647 7.27609C15.1219 6.14145 14.5682 4.86498 13.6038 4.22674C13.0144 3.81898 12.2821 3.74807 11.5855 3.69488C10.1746 3.69488 8.76358 3.71261 7.3526 3.69488ZM31.8571 6.38965C34.0897 6.19464 36.3579 6.30101 38.5369 6.86833C40.4837 7.38246 42.1626 8.80077 42.9306 10.6446C43.6093 12.2756 43.6807 14.1017 43.4842 15.8214C43.2878 17.6652 42.3947 19.4558 40.8766 20.5727C39.4478 21.6896 37.5903 22.0087 35.84 22.2214C33.5181 22.4165 31.1427 22.3101 28.9101 21.6541C26.8562 21.0336 25.1952 19.3671 24.5522 17.3283C24.0878 15.7504 24.0342 14.0662 24.2843 12.4529C24.5343 10.5736 25.606 8.78304 27.2134 7.75477C28.5886 6.83287 30.2675 6.6024 31.8571 6.38965ZM32.5715 9.01351C31.5178 9.24399 30.6247 10.1659 30.4818 11.2296C30.1782 13.2507 30.1782 15.325 30.464 17.346C30.6247 18.4984 31.6071 19.4912 32.768 19.6685C34.0897 19.9167 35.7328 19.8281 36.6616 18.7289C37.4296 17.8602 37.3403 16.6369 37.4474 15.5554C37.6082 14.2258 37.4474 12.8961 37.3224 11.5665C37.2688 10.5914 36.6616 9.65175 35.7685 9.22626C34.7684 8.78304 33.6074 8.69439 32.5715 9.01351ZM51.5571 7.0988C54.9506 5.85779 58.7549 6.15918 62.1662 7.18745C61.8805 8.09162 61.4875 8.97805 61.2375 9.89995C60.0408 9.79358 58.8799 9.439 57.6833 9.47446C56.5045 9.40354 55.2543 9.59856 54.3077 10.3254C53.2717 11.1764 53.0753 12.5947 53.0753 13.8535C53.0753 15.1654 53.0038 16.6014 53.8076 17.7183C54.397 18.5693 55.4329 18.9771 56.433 19.1012C58.0405 19.2253 59.6301 19.0303 61.2018 18.6757C61.5233 19.5976 61.8805 20.5018 62.1662 21.4414C58.7549 22.4696 54.9685 22.771 51.575 21.53C49.5925 20.8386 47.9851 19.2076 47.3599 17.2219C46.8599 15.5554 46.8241 13.7648 47.1813 12.0629C47.6279 9.79358 49.3425 7.86114 51.5571 7.0988ZM66.9528 7.16972C69.9891 6.4783 73.1325 6.15918 76.2581 6.3542C77.6869 6.53148 79.2229 6.7265 80.4196 7.59521C81.4734 8.37528 82.2592 9.54537 82.4735 10.8573C82.67 11.726 82.6164 12.6302 82.6164 13.5166C82.6164 16.0873 82.6164 18.658 82.6164 21.2286C79.0443 22.2392 75.2758 22.5406 71.5787 22.2037C70.2034 22.0973 68.846 21.7428 67.5958 21.2109C66.5956 20.8031 65.774 19.9876 65.3633 18.9948C64.631 17.3283 65.2025 15.2009 66.7028 14.1371C67.7387 13.4102 68.9889 13.0557 70.2034 12.7897C72.2931 12.3288 74.4363 12.382 76.5439 12.2756C76.5082 11.3537 76.7939 10.1304 75.7937 9.58083C74.7578 9.13761 73.5969 9.1908 72.4896 9.20853C70.9178 9.24399 69.364 9.52765 67.8459 9.89995C67.5958 8.96033 67.185 8.09162 66.9528 7.16972ZM71.7751 15.2718C70.4713 16.0696 70.2213 18.1616 71.4894 19.1189C72.9539 20.1117 74.8293 19.8812 76.5082 19.7571C76.5617 17.9843 76.526 16.2114 76.526 14.4385C74.9364 14.5094 73.2218 14.4385 71.7751 15.2718ZM0.940712 27.4514C12.2999 24.7212 24.3021 24.7389 35.6435 27.5578C39.5371 28.4442 43.5021 28.9938 47.485 29.2066C48.9138 29.1889 50.3426 29.3839 51.7715 29.3307C53.236 29.2243 54.7006 29.1711 56.1294 28.8875C56.9331 28.7634 57.7011 28.4974 58.5227 28.462C58.3798 28.8697 57.969 29.047 57.6476 29.2775C54.897 31.1922 52.0572 32.9828 49.146 34.6848C48.5387 35.0216 47.9672 35.4294 47.3064 35.6953C43.7164 35.5358 40.1265 35.0039 36.608 34.2593C34.3933 33.7274 32.1429 33.231 29.8925 32.8942C23.7306 31.8482 17.4437 31.7595 11.2283 32.2914C7.76339 32.6637 4.31633 33.231 0.922852 34.0643C0.958572 31.8659 0.922852 29.6498 0.940712 27.4514ZM63.6665 27.2387C63.9166 26.8487 64.3274 26.5295 64.8096 26.565C70.7571 26.565 76.6868 26.565 82.6343 26.565C82.6164 28.9761 82.6164 31.405 82.6343 33.8161C74.9186 33.7983 67.2029 33.8338 59.505 33.7983C60.9339 31.6532 62.2734 29.4193 63.6665 27.2387Z" fill="#525C66"/>
</svg>
