<svg width="160" height="36" viewBox="0 0 160 36" fill="none" xmlns="http://www.w3.org/2000/svg">
<path fill-rule="evenodd" clip-rule="evenodd" d="M18.2956 0.695312C8.69179 0.695312 0.876953 8.54666 0.876953 18.1953C0.876953 27.844 8.69179 35.6953 18.2956 35.6953C27.8994 35.6953 35.7142 27.844 35.7142 18.1953C35.6828 8.54666 27.868 0.695312 18.2956 0.695312ZM18.2956 34.1818C16.3811 34.1818 14.5608 33.8349 12.866 33.2359C10.1669 32.0692 7.68748 29.7674 6.68316 27.8124C5.45915 25.3214 4.7373 22.5782 4.98838 19.2043C5.64746 9.30342 17.2913 6.6863 21.5282 12.2674C25.671 17.7539 18.8291 21.8845 18.6722 19.4566C18.2956 13.5286 13.4623 15.6097 13.3054 19.1728C12.7718 29.862 30.5043 28.6007 30.6926 16.6187C30.8181 9.55567 25.9849 5.0782 23.5368 3.09171C29.7511 5.26738 34.2077 11.2268 34.2077 18.1953C34.2077 26.9926 27.052 34.1818 18.2956 34.1818Z" fill="#525C66"/>
<path fill-rule="evenodd" clip-rule="evenodd" d="M39.5117 6.11877H59.7864V12.2359H53.5408V30.9027H45.7573V12.2359H39.5117V6.11877Z" fill="#525C66"/>
<path fill-rule="evenodd" clip-rule="evenodd" d="M66.9109 23.1457C66.3146 23.2718 65.6869 23.4295 65.0592 23.6502C63.6783 24.2177 63.5841 25.0376 63.5841 25.2583C63.5841 25.7628 63.9921 26.6457 65.3731 26.6457C66.3774 26.6457 68.0722 25.9835 68.6999 24.5646C69.0451 23.8078 69.0451 23.0511 69.0451 22.4204C68.3232 22.6727 67.6328 22.925 66.9109 23.1457ZM57.5582 18.1952C57.8407 16.6502 58.2173 14.7267 60.8223 13.3709C62.8309 12.3303 65.4358 12.1411 67.3189 12.1411C75.9184 12.1411 75.9184 16.5871 75.9184 18.7628V28.6637C75.9184 29.8619 76.0125 30.1772 76.5461 30.9024H69.4531V29.5151C68.5429 30.1457 66.8795 31.3439 63.49 31.3439C58.9392 31.3439 56.9619 28.5691 56.9619 25.479C56.9619 24.4069 57.213 22.8934 58.4998 21.6006C60.1318 19.9295 62.0777 19.6457 65.2789 19.2042C67.2562 18.9204 68.0408 18.7628 69.1079 18.4475C69.0765 17.2177 68.7313 16.3664 66.6598 16.3664C65.0278 16.3664 64.5571 16.7763 64.306 18.0376L57.5582 18.1952ZM84.5492 14.3168C86.4951 12.5511 87.8446 12.3619 90.5751 12.3619V18.479C90.1044 18.4475 89.6022 18.4159 89.1 18.4159C84.8631 18.4159 84.8003 21.1907 84.7689 22.3889V30.934H77.6132V12.6141H84.5178V14.3168H84.5492ZM92.4582 6.15015H99.6767V17.943L104.573 12.7718H113.361L106.487 19.2988L113.674 30.9024H105.483L101.528 23.997L99.6454 25.8259V30.9024H92.4582V6.15015Z" fill="#525C66"/>
<path fill-rule="evenodd" clip-rule="evenodd" d="M125.381 19.2989C125.35 19.0151 125.35 18.7313 125.287 18.4475C124.973 17.1547 123.843 16.5871 122.87 16.5871C120.705 16.5871 120.328 18.479 120.14 19.2989H125.381ZM132.348 26.6457C130.214 29.8935 127.076 31.6277 122.745 31.6277C116.06 31.6277 112.764 26.8034 112.764 21.7268C112.764 15.7988 116.844 11.9835 122.713 11.9835C124.91 11.9835 127.766 12.5511 129.963 14.6952C132.631 17.3124 132.662 20.3394 132.725 23.1142H120.077C120.108 23.934 120.14 24.88 120.956 25.6683C121.113 25.8574 121.803 26.5196 123.121 26.5196C124.753 26.5196 125.663 25.6367 126.417 24.1547L132.348 26.6457Z" fill="#525C66"/>
<path fill-rule="evenodd" clip-rule="evenodd" d="M148.668 17.0604L148.7 25.8576C148.7 26.772 148.7 28.3801 149.924 29.6098C151.368 31.0918 153.91 31.1233 154.663 31.1233C156.169 31.1233 157.582 30.9342 159.214 30.745V25.7946C158.806 25.8576 158.335 25.9207 157.927 25.9207C156.012 25.9207 155.981 24.7225 155.981 24.0288L155.95 17.0919H159.182V13.1505H156.075L156.044 7.44336H148.825V13.1505H142.956V7.44336H135.706L135.738 13.1505H133.227V17.0919H135.581V25.8892C135.581 26.8036 135.581 28.4117 136.805 29.6414C138.249 31.1233 140.791 31.1549 141.544 31.1549C143.051 31.1549 144.463 30.9657 146.095 30.7765V25.7946C145.687 25.8576 145.216 25.9207 144.808 25.9207C142.894 25.9207 142.862 24.7225 142.862 24.0288L142.925 17.0289L148.668 17.0604Z" fill="#525C66"/>
</svg>
