<svg width="145" height="36" viewBox="0 0 145 36" fill="none" xmlns="http://www.w3.org/2000/svg">
<path d="M127.391 0.871908C127.944 0.673238 128.576 0.651164 129.109 0.960206C130.333 1.53414 130.551 3.63121 129.544 4.55834C128.635 5.30887 127.154 5.22058 126.463 4.161C125.791 3.0352 126.206 1.29132 127.391 0.871908ZM134.244 0.695312C135.507 0.695312 136.791 0.695312 138.055 0.695312C138.055 3.23387 138.035 5.77244 138.055 8.311C140.089 8.33307 142.123 8.28892 144.157 8.33307C144.137 9.30435 144.137 10.2535 144.157 11.2248C142.123 11.2248 140.089 11.2248 138.055 11.2248C138.075 16.2799 138.055 21.3129 138.055 26.3458C138.094 28.2884 138.509 30.4075 139.931 31.6658C141.096 32.7695 142.696 32.7253 144.137 32.6812C144.137 33.5421 144.137 34.403 144.137 35.2639C142.518 35.6612 140.82 35.7937 139.161 35.4846C137.502 35.1315 135.902 34.0498 135.152 32.3059C134.401 30.5179 134.263 28.5091 134.224 26.5666C134.244 17.9575 134.244 9.32642 134.244 0.695312ZM23.3196 11.8429C25.4523 9.4368 28.533 8.26685 31.5347 8.311C33.6082 8.37722 35.7805 8.79664 37.4986 10.1653C39.5523 11.7325 40.8162 14.3373 41.3297 17.0083C41.6851 18.7743 41.8628 20.5844 41.6851 22.3945C35.5633 22.3724 29.4414 22.3945 23.2998 22.3724C23.3196 24.028 23.2801 25.7498 23.8923 27.295C24.7809 29.9881 26.9729 31.8865 29.3822 32.6591C32.5221 33.6525 35.8397 33.2772 38.9994 32.5487C38.9994 33.2551 39.0586 34.0057 38.9204 34.712C36.3729 35.3522 33.7465 35.6833 31.1397 35.6171C28.3158 35.4626 25.4128 34.5575 23.2406 32.4604C21.0683 30.3854 19.9032 27.2288 19.7057 24.0942C19.3107 19.7456 20.4956 15.0216 23.3196 11.8429ZM25.2746 13.1674C23.7935 15.2645 23.2998 17.9575 23.1813 20.5623C28.1775 20.4961 33.1935 20.5623 38.1897 20.5402C38.407 17.6706 37.9528 14.5139 36.1162 12.3506C33.233 9.06153 27.7431 9.4368 25.2746 13.1674ZM47.728 9.78999C50.2557 8.00196 53.4944 8.09025 56.3183 8.79664C56.2986 9.61339 56.2986 10.4301 56.3183 11.2469C54.3633 11.0482 52.1712 11.0482 50.5914 12.5493C49.1301 14.0062 48.7549 16.324 48.7549 18.399C48.7549 24.0942 48.8141 29.8115 48.8141 35.5067C47.491 35.5288 46.1679 35.5729 44.8448 35.5288C44.825 29.0168 44.7658 22.5049 44.8053 15.9708C44.904 13.5868 45.8519 11.0924 47.728 9.78999ZM62.7759 8.99531C65.6196 7.95781 68.799 8.11233 71.5242 9.50302C71.5044 10.099 71.5242 10.695 71.5242 11.291C69.4309 10.4301 67.0612 9.94451 64.8889 10.7833C63.9607 11.0924 63.1313 11.7988 62.5981 12.7038C61.6305 14.3594 61.8082 16.8097 63.1906 18.1341C65.0864 20.0988 67.7918 20.4299 70.0036 21.7543C71.5834 22.5932 73.0645 23.9176 73.6767 25.794C74.3679 28.0897 74.0322 30.849 72.5313 32.637C71.2477 34.2485 69.3322 35.0211 67.4956 35.3964C64.5334 35.9482 61.4133 35.6833 58.5696 34.5796C58.5893 33.807 58.5696 33.0344 58.5696 32.2839C60.9393 33.0785 63.4078 33.8291 65.9158 33.4538C67.4364 33.1889 69.0359 32.4604 69.8061 30.8932C70.5565 29.2155 70.4183 27.0301 69.3322 25.5953C68.0881 24.0722 66.2712 23.4099 64.5729 22.7477C62.4994 21.9309 60.3469 20.8272 59.0633 18.7522C58.0759 17.1408 58.1549 15.0437 58.7275 13.2778C59.32 11.2028 60.9591 9.67961 62.7759 8.99531ZM109.361 8.68626C111.77 8.311 114.298 7.97988 116.648 8.92908C118.643 9.65754 120.242 11.4897 121.012 13.653C121.565 15.2424 121.822 16.9421 121.881 18.6198C121.881 24.2488 121.881 29.8777 121.881 35.4846C120.617 35.5067 119.373 35.4846 118.109 35.4846C118.109 30.4517 118.109 25.3966 118.109 20.3636C118.109 18.3328 117.734 16.2578 116.727 14.5139C115.562 12.2844 113.252 10.9158 110.941 11.0041C108.709 11.0041 106.399 11.7325 104.78 13.5206C104.641 20.8272 104.72 28.1559 104.701 35.4626C103.437 35.4846 102.153 35.4626 100.889 35.4846C100.889 28.9727 100.889 22.4607 100.889 15.9267C100.87 14.6022 100.929 13.2778 100.83 11.9754C100.791 11.578 100.81 11.1807 100.889 10.8054C103.713 10.099 106.478 9.12775 109.361 8.68626ZM126.186 8.311C127.509 8.311 128.852 8.311 130.175 8.311C130.175 17.3615 130.175 26.4341 130.175 35.4846C128.833 35.4846 127.509 35.5067 126.167 35.4626C126.226 26.4341 126.167 17.3615 126.186 8.311ZM8.84436 9.14983C11.7078 8.26685 14.7292 8.15648 17.6322 8.84079C17.6519 9.65754 17.6519 10.4743 17.6322 11.3131C15.1044 10.695 12.3792 10.6509 9.95024 11.7546C6.98805 13.057 4.85528 16.2578 4.40108 19.7456C4.04562 22.3945 4.28259 25.2421 5.44772 27.6261C6.5931 30.0764 8.70612 31.8865 11.0759 32.5929C13.2086 33.2331 15.4796 33.1448 17.6124 32.5929C17.6717 33.3876 17.6519 34.2043 17.6322 35.0211C13.8603 36.0144 9.71326 36.0586 6.15864 34.1381C3.59141 32.7916 1.61662 30.1868 0.767465 27.1626C-0.496401 22.5932 -0.00270295 17.207 2.82125 13.4764C4.36158 11.3793 6.5536 9.96658 8.84436 9.14983ZM80.0553 9.54717C83.4519 8.37722 87.125 7.89158 90.6204 8.77456C92.5952 9.23813 94.491 10.5184 95.4981 12.5051C96.4263 14.2711 96.7028 16.3682 96.762 18.399C96.762 24.0942 96.762 29.8115 96.762 35.5067C93.6616 35.4846 90.5414 35.5509 87.441 35.4846C84.7158 35.286 81.8128 34.8224 79.5418 32.9682C76.6389 30.6724 76.1452 25.3745 78.6927 22.549C80.4305 20.6727 82.8595 19.9222 85.17 19.4586C87.7372 19.0613 90.3242 18.8405 92.9112 19.0613C92.8914 17.516 93.1284 15.9046 92.5754 14.4477C92.0028 12.77 90.7389 11.4676 89.2381 10.8937C86.2561 9.76791 82.9977 10.2977 80.075 11.4014C80.0553 10.7833 80.0553 10.1653 80.0553 9.54717ZM84.2813 21.6881C82.5435 22.4828 81.0032 24.1163 80.6082 26.2355C80.391 27.8248 80.4897 29.5687 81.3389 30.8932C82.2275 32.3501 83.7284 33.1448 85.2095 33.5421C87.7175 34.1602 90.3242 34.1823 92.8914 34.116C92.8914 29.5687 92.8914 25.0214 92.8914 20.4519C90.0082 20.4078 87.0065 20.4519 84.2813 21.6881Z" fill="#525C66"/>
</svg>
